<svg width="300" height="80" viewBox="0 0 300 80" fill="none" xmlns="http://www.w3.org/2000/svg">
<rect width="300" height="80" rx="40" fill="#F5F5F5"/>
<path d="M84.6897 16C79.6821 17.6917 75.7795 19.3835 76.3359 26.7143C81.3436 25.5865 85.8026 22.7669 84.6897 16ZM68.7857 26.1786C63.9643 26.1786 57 30.4643 57 38.5C57 49.75 64.5 61 68.7857 61C72 61 74.6786 58.8571 76.8214 58.8571C78.9643 58.8571 81.1071 61 84.3214 61C88.6071 61 93.4286 54.5714 94.5 48.6786C90.75 46 88.0714 44.3929 88.0714 39.5714C88.0714 36.3571 90.75 33.1429 93.9643 30.4643C92.3571 28.3214 89.1429 26.1786 85.9286 26.1786C82.7143 26.1786 79.2578 28.7217 76.8214 28.8571C74.6786 28.8571 72 26.1786 68.7857 26.1786Z" fill="#2A2B2B"/>
<path d="M119.9 29.09C119.07 29.09 118.193 29.0375 117.268 28.9325V18.08C117.728 17.99 118.21 17.92 118.715 17.87C119.22 17.815 119.705 17.7875 120.17 17.7875C122.01 17.7875 123.393 18.255 124.318 19.19C125.243 20.12 125.705 21.54 125.705 23.45C125.705 25.385 125.223 26.81 124.258 27.725C123.298 28.635 121.845 29.09 119.9 29.09ZM120.14 28.0475C121.11 28.0475 121.913 27.89 122.548 27.575C123.183 27.26 123.658 26.765 123.973 26.09C124.293 25.41 124.453 24.53 124.453 23.45C124.453 21.85 124.105 20.68 123.41 19.94C122.715 19.2 121.648 18.83 120.208 18.83C119.683 18.83 119.108 18.8775 118.483 18.9725V27.95C118.983 28.015 119.535 28.0475 120.14 28.0475ZM130.665 29.1425C129.575 29.1425 128.725 28.8 128.115 28.115C127.51 27.425 127.208 26.3675 127.208 24.9425C127.208 23.5175 127.51 22.46 128.115 21.77C128.72 21.08 129.57 20.735 130.665 20.735C131.765 20.735 132.618 21.0775 133.223 21.7625C133.828 22.4475 134.13 23.505 134.13 24.935C134.13 26.355 133.825 27.4125 133.215 28.1075C132.605 28.7975 131.755 29.1425 130.665 29.1425ZM130.665 28.1675C131.395 28.1675 131.95 27.9225 132.33 27.4325C132.71 26.9375 132.9 26.1125 132.9 24.9575C132.9 23.7825 132.71 22.95 132.33 22.46C131.95 21.965 131.395 21.7175 130.665 21.7175C129.94 21.7175 129.385 21.9625 129 22.4525C128.62 22.9425 128.43 23.765 128.43 24.92C128.43 26.09 128.62 26.925 129 27.425C129.38 27.92 129.935 28.1675 130.665 28.1675ZM145.747 20.8625H146.88L144.51 29H143.092L141 22.0475L138.892 29H137.482L135.097 20.8625H136.275L138.247 27.755L140.31 20.8625H141.72L143.775 27.7175L145.747 20.8625ZM148.466 20.8625H149.478L149.561 21.785H149.643C149.978 21.445 150.363 21.185 150.798 21.005C151.238 20.825 151.706 20.735 152.201 20.735C153.016 20.735 153.653 20.965 154.113 21.425C154.578 21.88 154.811 22.6125 154.811 23.6225V29H153.611V23.675C153.611 23.01 153.463 22.5325 153.168 22.2425C152.878 21.9525 152.458 21.8075 151.908 21.8075C151.503 21.8075 151.098 21.895 150.693 22.07C150.288 22.245 149.946 22.5175 149.666 22.8875V29H148.466V20.8625ZM156.991 29V16.88H158.191V29H156.991ZM163.493 29.1425C162.403 29.1425 161.553 28.8 160.943 28.115C160.338 27.425 160.035 26.3675 160.035 24.9425C160.035 23.5175 160.338 22.46 160.943 21.77C161.548 21.08 162.398 20.735 163.493 20.735C164.593 20.735 165.445 21.0775 166.05 21.7625C166.655 22.4475 166.958 23.505 166.958 24.935C166.958 26.355 166.653 27.4125 166.043 28.1075C165.433 28.7975 164.583 29.1425 163.493 29.1425ZM163.493 28.1675C164.223 28.1675 164.778 27.9225 165.158 27.4325C165.538 26.9375 165.728 26.1125 165.728 24.9575C165.728 23.7825 165.538 22.95 165.158 22.46C164.778 21.965 164.223 21.7175 163.493 21.7175C162.768 21.7175 162.213 21.9625 161.828 22.4525C161.448 22.9425 161.258 23.765 161.258 24.92C161.258 26.09 161.448 26.925 161.828 27.425C162.208 27.92 162.763 28.1675 163.493 28.1675ZM171.22 20.735C171.93 20.735 172.513 20.8275 172.968 21.0125C173.423 21.1975 173.765 21.505 173.995 21.935C174.225 22.365 174.34 22.9425 174.34 23.6675V29H173.335L173.245 28.0925H173.163C172.903 28.4225 172.565 28.68 172.15 28.865C171.74 29.045 171.295 29.135 170.815 29.135C170.31 29.135 169.873 29.0475 169.503 28.8725C169.133 28.6925 168.848 28.435 168.648 28.1C168.453 27.765 168.355 27.37 168.355 26.915C168.355 26.195 168.59 25.64 169.06 25.25C169.53 24.855 170.278 24.6075 171.303 24.5075L173.163 24.305V23.6075C173.163 23.1225 173.085 22.7425 172.93 22.4675C172.78 22.1925 172.553 22 172.248 21.89C171.948 21.775 171.553 21.7175 171.063 21.7175C170.728 21.7175 170.368 21.7475 169.983 21.8075C169.603 21.8675 169.23 21.96 168.865 22.085V21.095C169.2 20.98 169.58 20.8925 170.005 20.8325C170.43 20.7675 170.835 20.735 171.22 20.735ZM171.115 28.205C171.5 28.205 171.87 28.125 172.225 27.965C172.58 27.805 172.893 27.555 173.163 27.215V25.115L171.385 25.31C170.75 25.375 170.288 25.53 169.998 25.775C169.713 26.02 169.57 26.3625 169.57 26.8025C169.57 27.2625 169.7 27.6125 169.96 27.8525C170.22 28.0875 170.605 28.205 171.115 28.205ZM179.292 29.1425C178.672 29.1425 178.122 29.005 177.642 28.73C177.162 28.455 176.782 28.0175 176.502 27.4175C176.227 26.8125 176.09 26.04 176.09 25.1C176.09 23.645 176.435 22.555 177.125 21.83C177.82 21.1 178.845 20.735 180.2 20.735C180.59 20.735 181.03 20.7725 181.52 20.8475V16.88H182.72V29H181.692L181.61 28.115H181.535C181.28 28.43 180.96 28.68 180.575 28.865C180.19 29.05 179.762 29.1425 179.292 29.1425ZM179.57 28.1075C179.95 28.1075 180.312 28.025 180.657 27.86C181.002 27.69 181.29 27.4375 181.52 27.1025V21.86C181.33 21.82 181.115 21.7875 180.875 21.7625C180.635 21.7325 180.402 21.7175 180.177 21.7175C179.212 21.7175 178.492 21.9775 178.017 22.4975C177.547 23.0125 177.312 23.8425 177.312 24.9875C177.312 26.1225 177.507 26.9275 177.897 27.4025C178.292 27.8725 178.85 28.1075 179.57 28.1075ZM191.676 29.1425C190.586 29.1425 189.736 28.8 189.126 28.115C188.521 27.425 188.219 26.3675 188.219 24.9425C188.219 23.5175 188.521 22.46 189.126 21.77C189.731 21.08 190.581 20.735 191.676 20.735C192.776 20.735 193.629 21.0775 194.234 21.7625C194.839 22.4475 195.141 23.505 195.141 24.935C195.141 26.355 194.836 27.4125 194.226 28.1075C193.616 28.7975 192.766 29.1425 191.676 29.1425ZM191.676 28.1675C192.406 28.1675 192.961 27.9225 193.341 27.4325C193.721 26.9375 193.911 26.1125 193.911 24.9575C193.911 23.7825 193.721 22.95 193.341 22.46C192.961 21.965 192.406 21.7175 191.676 21.7175C190.951 21.7175 190.396 21.9625 190.011 22.4525C189.631 22.9425 189.441 23.765 189.441 24.92C189.441 26.09 189.631 26.925 190.011 27.425C190.391 27.92 190.946 28.1675 191.676 28.1675ZM196.981 20.8625H197.994L198.076 21.785H198.159C198.494 21.445 198.879 21.185 199.314 21.005C199.754 20.825 200.221 20.735 200.716 20.735C201.531 20.735 202.169 20.965 202.629 21.425C203.094 21.88 203.326 22.6125 203.326 23.6225V29H202.126V23.675C202.126 23.01 201.979 22.5325 201.684 22.2425C201.394 21.9525 200.974 21.8075 200.424 21.8075C200.019 21.8075 199.614 21.895 199.209 22.07C198.804 22.245 198.461 22.5175 198.181 22.8875V29H196.981V20.8625ZM212.536 28.1C212.821 28.1 213.154 28.06 213.534 27.98V28.9925C213.109 29.0925 212.691 29.1425 212.281 29.1425C210.526 29.1425 209.649 28.2425 209.649 26.4425V21.8525H208.111V20.8625H209.649L209.844 17.9H210.849V20.8625H213.406V21.8525H210.849V26.255C210.849 26.92 210.984 27.395 211.254 27.68C211.529 27.96 211.956 28.1 212.536 28.1ZM214.808 16.88H216.008V21.77H216.083C216.408 21.43 216.783 21.1725 217.208 20.9975C217.633 20.8225 218.093 20.735 218.588 20.735C219.383 20.735 220.008 20.965 220.463 21.425C220.923 21.88 221.153 22.61 221.153 23.615V29H219.953V23.6675C219.953 23.0025 219.806 22.53 219.511 22.25C219.221 21.965 218.801 21.8225 218.251 21.8225C217.836 21.8225 217.426 21.91 217.021 22.085C216.621 22.26 216.283 22.53 216.008 22.895V29H214.808V16.88ZM229.334 25.3325H224.121C224.141 26.0175 224.254 26.5675 224.459 26.9825C224.669 27.3975 224.974 27.6975 225.374 27.8825C225.774 28.0675 226.284 28.16 226.904 28.16C227.494 28.16 228.169 28.05 228.929 27.83V28.8125C228.189 29.0325 227.466 29.1425 226.761 29.1425C225.466 29.1425 224.499 28.8075 223.859 28.1375C223.224 27.4675 222.906 26.3975 222.906 24.9275C222.906 23.5325 223.194 22.485 223.769 21.785C224.349 21.085 225.159 20.735 226.199 20.735C227.214 20.735 227.989 21.085 228.524 21.785C229.064 22.48 229.334 23.5375 229.334 24.9575V25.3325ZM226.184 21.6125C225.529 21.6125 225.026 21.8375 224.676 22.2875C224.326 22.7375 224.141 23.4775 224.121 24.5075H228.179C228.159 23.4725 227.981 22.7325 227.646 22.2875C227.316 21.8375 226.829 21.6125 226.184 21.6125Z" fill="#444545"/>
<path d="M126.781 57L124.974 51.462H117.46L115.653 57H112.247L118.721 37.76H123.739L130.213 57H126.781ZM118.357 48.68H124.064L121.204 39.944L118.357 48.68ZM132.149 42.817H135.022L135.243 44.338H135.412C135.837 43.8007 136.374 43.376 137.024 43.064C137.683 42.752 138.419 42.596 139.234 42.596C140.326 42.596 141.301 42.8387 142.159 43.324C143.017 43.8093 143.697 44.5763 144.2 45.625C144.711 46.6737 144.967 48.0127 144.967 49.642C144.967 52.138 144.33 54.0317 143.056 55.323C141.782 56.6143 139.914 57.26 137.453 57.26C136.95 57.26 136.318 57.2167 135.555 57.13V62.72H132.149V42.817ZM137.453 54.621C138.831 54.621 139.854 54.2527 140.521 53.516C141.197 52.7707 141.535 51.5703 141.535 49.915C141.535 48.2597 141.253 47.094 140.69 46.418C140.127 45.742 139.325 45.404 138.285 45.404C137.756 45.404 137.249 45.5123 136.764 45.729C136.279 45.937 135.876 46.249 135.555 46.665V54.439C136.162 54.5603 136.794 54.621 137.453 54.621ZM147.663 42.817H150.536L150.757 44.338H150.926C151.35 43.8007 151.888 43.376 152.538 43.064C153.196 42.752 153.933 42.596 154.748 42.596C155.84 42.596 156.815 42.8387 157.673 43.324C158.531 43.8093 159.211 44.5763 159.714 45.625C160.225 46.6737 160.481 48.0127 160.481 49.642C160.481 52.138 159.844 54.0317 158.57 55.323C157.296 56.6143 155.428 57.26 152.967 57.26C152.464 57.26 151.831 57.2167 151.069 57.13V62.72H147.663V42.817ZM152.967 54.621C154.345 54.621 155.367 54.2527 156.035 53.516C156.711 52.7707 157.049 51.5703 157.049 49.915C157.049 48.2597 156.767 47.094 156.204 46.418C155.64 45.742 154.839 45.404 153.799 45.404C153.27 45.404 152.763 45.5123 152.278 45.729C151.792 45.937 151.389 46.249 151.069 46.665V54.439C151.675 54.5603 152.308 54.621 152.967 54.621ZM174.318 57.247C173.434 57.247 172.546 57.1777 171.653 57.039C170.769 56.9003 169.941 56.701 169.17 56.441V53.594C169.959 53.8627 170.808 54.0707 171.718 54.218C172.637 54.3567 173.503 54.426 174.318 54.426C175.679 54.426 176.675 54.1963 177.308 53.737C177.941 53.2777 178.257 52.606 178.257 51.722C178.257 51.2193 178.157 50.8033 177.958 50.474C177.767 50.1447 177.447 49.8587 176.996 49.616C176.545 49.3733 175.917 49.148 175.111 48.94L173.811 48.602C172.112 48.1773 170.847 47.523 170.015 46.639C169.183 45.755 168.767 44.598 168.767 43.168C168.767 41.374 169.408 39.983 170.691 38.995C171.982 38.007 173.872 37.513 176.359 37.513C177.174 37.513 177.962 37.565 178.725 37.669C179.496 37.7643 180.185 37.903 180.792 38.085V40.932C180.168 40.7413 179.488 40.594 178.751 40.49C178.014 40.386 177.273 40.334 176.528 40.334C175.029 40.334 173.937 40.5637 173.252 41.023C172.567 41.4823 172.225 42.1367 172.225 42.986C172.225 43.4627 172.312 43.8613 172.485 44.182C172.667 44.5027 172.962 44.78 173.369 45.014C173.785 45.248 174.353 45.4647 175.072 45.664L176.372 45.989C178.218 46.4483 179.57 47.12 180.428 48.004C181.295 48.888 181.728 50.0493 181.728 51.488C181.728 52.684 181.433 53.7153 180.844 54.582C180.263 55.4487 179.414 56.1117 178.296 56.571C177.187 57.0217 175.861 57.247 174.318 57.247ZM190.95 54.426C191.366 54.426 191.89 54.3653 192.523 54.244V56.974C191.699 57.1647 190.88 57.26 190.066 57.26C186.703 57.26 185.022 55.5657 185.022 52.177V45.534H182.578V42.817H185.022L185.62 37.76H188.428V42.817H192.393V45.534H188.428V51.631C188.428 52.3243 188.514 52.8747 188.688 53.282C188.87 53.6893 189.143 53.984 189.507 54.166C189.871 54.3393 190.352 54.426 190.95 54.426ZM200.36 57.26C198.289 57.26 196.668 56.649 195.498 55.427C194.337 54.205 193.756 52.3763 193.756 49.941C193.756 47.4883 194.328 45.651 195.472 44.429C196.625 43.207 198.254 42.596 200.36 42.596C202.466 42.596 204.091 43.207 205.235 44.429C206.388 45.651 206.964 47.484 206.964 49.928C206.964 51.5573 206.696 52.918 206.158 54.01C205.63 55.102 204.871 55.9167 203.883 56.454C202.895 56.9913 201.721 57.26 200.36 57.26ZM200.36 54.634C201.409 54.634 202.198 54.2787 202.726 53.568C203.264 52.8573 203.532 51.6527 203.532 49.954C203.532 48.2293 203.264 47.0117 202.726 46.301C202.198 45.5817 201.409 45.222 200.36 45.222C199.312 45.222 198.519 45.5773 197.981 46.288C197.453 46.9987 197.188 48.2033 197.188 49.902C197.188 51.072 197.31 52.0037 197.552 52.697C197.804 53.3903 198.159 53.8887 198.618 54.192C199.086 54.4867 199.667 54.634 200.36 54.634ZM209.667 42.817H212.475L212.735 44.663H212.917C213.333 43.9957 213.879 43.493 214.555 43.155C215.239 42.817 215.989 42.648 216.804 42.648C217.176 42.648 217.553 42.6783 217.935 42.739V45.833C217.597 45.7723 217.155 45.742 216.609 45.742C215.933 45.742 215.265 45.8807 214.607 46.158C213.957 46.4353 213.445 46.8297 213.073 47.341V57H209.667V42.817ZM231.062 50.929H222.287C222.33 51.8477 222.503 52.58 222.807 53.126C223.11 53.6633 223.578 54.0533 224.211 54.296C224.843 54.5387 225.688 54.66 226.746 54.66C227.786 54.66 228.973 54.4953 230.308 54.166V56.753C228.947 57.091 227.604 57.26 226.278 57.26C224.588 57.26 223.197 57.0043 222.105 56.493C221.021 55.9817 220.211 55.1887 219.674 54.114C219.136 53.0307 218.868 51.6267 218.868 49.902C218.868 48.316 219.115 46.977 219.609 45.885C220.103 44.793 220.818 43.974 221.754 43.428C222.69 42.8733 223.821 42.596 225.147 42.596C227.079 42.596 228.548 43.22 229.554 44.468C230.559 45.7073 231.062 47.5533 231.062 50.006V50.929ZM225.121 44.819C224.202 44.819 223.504 45.131 223.028 45.755C222.551 46.379 222.3 47.4233 222.274 48.888H227.877C227.851 47.4233 227.608 46.379 227.149 45.755C226.698 45.131 226.022 44.819 225.121 44.819Z" fill="#2A2B2B"/>
</svg>
