<svg width="145" height="35" viewBox="0 0 145 35" fill="none" xmlns="http://www.w3.org/2000/svg">
<path d="M22.4871 2.89461L19.9667 9.11697C19.8288 9.47141 19.4153 9.64863 19.0412 9.51079C18.7458 9.39264 18.5883 9.11697 18.608 8.8216L18.9427 2.12666C19.0018 1.10272 19.8682 0.334772 20.8724 0.374154C21.8964 0.433227 22.6643 1.29963 22.6249 2.30387C22.6052 2.50078 22.5462 2.6977 22.4871 2.89461Z" fill="#F16037"/>
<path fill-rule="evenodd" clip-rule="evenodd" d="M28.6898 0H32.8052C33.2581 0 33.6913 0.452894 33.6716 0.866405C33.6716 1.35446 33.439 1.5562 33.2808 1.69339C33.2731 1.70011 33.2655 1.70668 33.2581 1.71312L23.4126 11.2042V11.2239C23.0976 11.5586 22.5659 11.5586 22.2509 11.2239C21.9949 10.9679 21.9555 10.5938 22.113 10.2787C22.113 10.2787 26.8192 1.47683 27.1933 0.787641C27.5674 0.0984551 28.3748 0 28.6898 0ZM34.7743 17.3672C34.7743 26.9764 26.9964 34.7544 17.3872 34.7544C7.79764 34.7544 0 26.9764 0 17.3672C0 8.60471 6.47835 1.35842 14.9061 0.157263C14.943 0.148031 14.98 0.143127 15.0149 0.138493C15.0544 0.133243 15.0913 0.12834 15.1227 0.117881C15.3984 0.137572 15.6347 0.314791 15.7134 0.590466L15.7331 0.846449L16.4026 8.66379L16.4223 8.88039C16.4026 9.15606 16.2057 9.37266 15.9497 9.45143C15.9103 9.45143 15.871 9.45143 15.8316 9.47112C12.1297 10.1997 9.31385 13.4684 9.31385 17.3869C9.31385 21.8371 12.9173 25.4602 17.3872 25.4602C21.8373 25.4602 25.4408 21.8568 25.4605 17.4263V17.4066V17.3672V17.3278C25.4802 17.0522 25.6574 16.8356 25.9134 16.7568L26.0315 16.7371L33.8489 15.1224L34.0261 15.0831H34.0655C34.3608 15.0831 34.6168 15.28 34.6956 15.5753C34.6956 15.6028 34.6998 15.6302 34.7044 15.6596C34.7096 15.6935 34.7153 15.73 34.7153 15.7722C34.7547 16.2645 34.7743 16.8159 34.7743 17.3672ZM22.9006 17.3674C22.9006 20.3998 20.4393 22.8809 17.4069 22.8809C14.3744 22.8809 11.8934 20.4195 11.8934 17.3674C11.8934 14.335 14.3547 11.8539 17.4069 11.8539C20.4393 11.8736 22.9006 14.335 22.9006 17.3674Z" fill="#4FBA69"/>
<path d="M31.9191 12.3266L25.5392 14.3941C25.1651 14.5123 24.7713 14.3153 24.6531 13.9412C24.5547 13.6459 24.6728 13.3308 24.8894 13.1536L30.2257 9.09722C31.033 8.4868 32.1948 8.64433 32.8052 9.45166C33.4156 10.259 33.2581 11.4208 32.4508 12.0312C32.2933 12.169 32.0963 12.2675 31.9191 12.3266Z" fill="#F16037"/>
<path d="M53.6476 25.1858H57.4483C56.9954 26.6686 56.1092 27.8943 54.7898 28.8236C53.4704 29.7528 52.0329 30.2273 50.4574 30.2273C49.5122 30.2273 48.5867 30.0493 47.6611 29.6737C46.7356 29.298 45.9282 28.7642 45.1995 28.092C44.4906 27.4001 43.9195 26.5895 43.5454 25.6405C43.1515 24.6915 42.9546 23.6832 42.9546 22.6353C42.9546 20.5792 43.6832 18.8592 45.1405 17.4159C46.5977 15.9924 48.37 15.2807 50.4378 15.2807C52.0132 15.2807 53.4507 15.7552 54.7898 16.7042C56.1289 17.6531 56.9954 18.8789 57.4286 20.3815H53.6279C53.2538 19.7686 52.8009 19.3139 52.2889 19.0173C51.7768 18.7208 51.127 18.5824 50.3984 18.5824C49.1774 18.5824 48.2125 18.9778 47.4642 19.7488C46.7159 20.5199 46.3614 21.5084 46.3614 22.6947C46.3614 23.9204 46.7552 24.9485 47.5429 25.7393C48.3307 26.5499 49.335 26.9453 50.5756 26.9453C51.2058 26.9453 51.7768 26.7872 52.3282 26.4708C52.8599 26.1347 53.3129 25.7196 53.6476 25.1858Z" fill="#6E7171"/>
<path d="M66.2507 15.2807C68.2988 15.2807 70.0317 16.0112 71.4496 17.4723C72.8674 18.9334 73.5961 20.7104 73.5961 22.7836C73.5961 24.837 72.8674 26.5943 71.3905 28.0554C69.9136 29.5165 68.1609 30.2273 66.0932 30.2273C64.0649 30.2273 62.3122 29.4967 60.855 28.0159C59.378 26.5548 58.6494 24.7975 58.6494 22.7638C58.6494 20.6709 59.378 18.8939 60.855 17.4328C62.3319 16.0112 64.1239 15.2807 66.2507 15.2807ZM66.1129 18.578C65.5812 18.578 65.0495 18.6965 64.5572 18.9137C64.0649 19.1309 63.6119 19.4468 63.2378 19.8417C62.4698 20.6117 62.0759 21.5989 62.0759 22.7836C62.0759 23.9288 62.4698 24.916 63.2378 25.7255C64.0058 26.535 64.9707 26.9299 66.1326 26.9299C67.3141 26.9299 68.2988 26.535 69.0668 25.7453C69.8348 24.9555 70.2286 23.9683 70.2286 22.7836C70.2286 21.6187 69.8348 20.6314 69.0471 19.8022C68.2397 18.9729 67.2748 18.578 66.1129 18.578Z" fill="#6E7171"/>
<path d="M61.4656 14.0899L64.7148 10.5981H67.393L70.6817 14.0899H67.393L66.0342 12.4722L64.4588 14.0899H61.4656Z" fill="#6E7171"/>
<path d="M85.5297 25.1858H89.3304C88.8775 26.6686 87.9913 27.8943 86.6719 28.8236C85.3525 29.7528 83.9149 30.2273 82.3395 30.2273C81.3943 30.2273 80.4687 30.0493 79.5432 29.6737C78.6176 29.298 77.8102 28.7642 77.0816 28.092C76.3727 27.4001 75.8016 26.5895 75.4274 25.6405C75.0336 24.6915 74.8367 23.6832 74.8367 22.6353C74.8367 20.5792 75.5653 18.8592 77.0225 17.4159C78.4798 15.9924 80.2521 15.2807 82.3198 15.2807C83.8952 15.2807 85.3328 15.7552 86.6719 16.7042C88.011 17.6531 88.8775 18.8789 89.3107 20.3815H85.51C85.1359 19.7686 84.6829 19.3139 84.1709 19.0173C83.6392 18.7208 83.0091 18.5824 82.2804 18.5824C81.0595 18.5824 80.0946 18.9778 79.3463 19.7488C78.5979 20.5199 78.2238 21.5084 78.2238 22.6947C78.2238 23.9204 78.6176 24.9485 79.4053 25.7393C80.193 26.5499 81.1974 26.9453 82.438 26.9453C83.0682 26.9453 83.6589 26.7872 84.1906 26.4708C84.7617 26.1347 85.1949 25.7196 85.5297 25.1858Z" fill="#6E7171"/>
<path d="M108.294 25.1858H112.095C111.642 26.6686 110.756 27.8943 109.437 28.8236C108.117 29.7528 106.68 30.2273 105.104 30.2273C104.159 30.2273 103.234 30.0493 102.308 29.6737C101.382 29.298 100.575 28.7642 99.8464 28.092C99.1178 27.4001 98.5664 26.5895 98.1922 25.6405C97.7984 24.6915 97.6014 23.6832 97.6014 22.6353C97.6014 20.5792 98.3301 18.8592 99.7873 17.4159C101.245 15.9924 103.017 15.2807 105.085 15.2807C106.66 15.2807 108.098 15.7552 109.437 16.7042C110.776 17.6531 111.642 18.8789 112.075 20.3815H108.275C107.901 19.7686 107.467 19.3139 106.936 19.0173C106.404 18.7208 105.774 18.5824 105.045 18.5824C103.824 18.5824 102.859 18.9778 102.111 19.7488C101.363 20.5199 100.989 21.5084 100.989 22.6947C100.989 23.9204 101.382 24.9485 102.17 25.7393C102.958 26.5499 103.962 26.9453 105.203 26.9453C105.833 26.9453 106.424 26.7872 106.955 26.4708C107.507 26.1347 107.96 25.7196 108.294 25.1858Z" fill="#6E7171"/>
<path d="M120.957 15.2807C123.005 15.2807 124.738 16.0112 126.156 17.4723C127.573 18.9334 128.302 20.7104 128.302 22.7836C128.302 24.837 127.573 26.5943 126.097 28.0554C124.639 29.5165 122.867 30.2273 120.799 30.2273C118.771 30.2273 117.018 29.4967 115.561 28.0159C114.084 26.5548 113.355 24.7975 113.355 22.7638C113.355 20.6709 114.084 18.8939 115.561 17.4328C117.038 16.0112 118.83 15.2807 120.957 15.2807ZM120.799 18.578C120.268 18.578 119.736 18.6965 119.244 18.9137C118.751 19.1309 118.298 19.4468 117.924 19.8417C117.156 20.6117 116.762 21.5989 116.762 22.7836C116.762 23.9288 117.156 24.916 117.924 25.7255C118.692 26.535 119.657 26.9299 120.819 26.9299C122.001 26.9299 122.985 26.535 123.753 25.7453C124.541 24.9555 124.915 23.9683 124.915 22.7836C124.915 21.6187 124.521 20.6314 123.733 19.8022C122.946 18.9729 121.981 18.578 120.799 18.578Z" fill="#6E7171"/>
<path d="M116.172 14.0899L119.421 10.5981H122.099L125.388 14.0899H122.099L120.72 12.4722L119.165 14.0899H116.172Z" fill="#6E7171"/>
<path d="M140.177 25.1858H143.977C143.525 26.6686 142.638 27.8943 141.319 28.8236C140 29.7528 138.562 30.2273 136.987 30.2273C136.041 30.2273 135.116 30.0493 134.19 29.6737C133.265 29.298 132.457 28.7642 131.729 28.092C131 27.4001 130.468 26.5895 130.075 25.6405C129.681 24.6915 129.503 23.6832 129.503 22.6353C129.503 20.5792 130.232 18.8592 131.689 17.4159C133.147 15.9924 134.919 15.2807 136.987 15.2807C138.562 15.2807 140 15.7552 141.339 16.7042C142.678 17.6531 143.544 18.8789 143.977 20.3815H140.177C139.803 19.7686 139.35 19.3139 138.838 19.0173C138.306 18.7208 137.676 18.5824 136.947 18.5824C135.726 18.5824 134.761 18.9778 134.013 19.7488C133.265 20.5199 132.891 21.5084 132.891 22.6947C132.891 23.9204 133.284 24.9485 134.072 25.7393C134.86 26.5499 135.864 26.9453 137.105 26.9453C137.735 26.9453 138.326 26.7872 138.857 26.4708C139.409 26.1347 139.842 25.7196 140.177 25.1858Z" fill="#6E7171"/>
<path d="M69.5985 6.92874L70.78 3.83147C71.0163 3.21991 71.2133 2.80562 71.3905 2.56889C71.5677 2.33215 71.7843 2.17433 72.0797 2.09542C72.5917 1.95733 72.9265 2.1546 73.0447 2.6478C73.1431 3.06208 72.8871 3.67365 72.257 4.46276L69.9726 7.38248C69.8151 7.57975 69.6969 7.67839 69.6379 7.69812C69.5197 7.71785 69.4606 7.69812 69.4212 7.57975C69.3819 7.52057 69.4409 7.30357 69.5985 6.92874Z" fill="#4FBA69"/>
<path d="M71.0558 8.36879L73.1826 5.8239C73.5961 5.3307 73.9309 4.99533 74.1672 4.81778C74.4035 4.64023 74.6792 4.56132 74.9746 4.60077C75.5063 4.64023 75.7426 4.91642 75.7032 5.44907C75.6638 5.88308 75.2306 6.35655 74.3641 6.90893L71.2527 8.92116C71.0361 9.05926 70.8982 9.11844 70.8195 9.11844C70.7013 9.11844 70.6422 9.05926 70.6619 8.94089C70.6619 8.86198 70.7998 8.68443 71.0558 8.36879Z" fill="#4FBA69"/>
<path d="M72.3752 9.86825L75.2897 8.30975C75.8607 8.01383 76.294 7.81655 76.5697 7.75737C76.8651 7.67846 77.1408 7.71791 77.3968 7.85601C77.8694 8.09274 77.9875 8.44784 77.7512 8.92131C77.5543 9.29614 76.9635 9.59206 75.9592 9.76961L72.3161 10.4601C72.0798 10.4995 71.9222 10.5193 71.8435 10.4798C71.745 10.4206 71.7056 10.3614 71.7647 10.2628C71.8238 10.1839 72.0207 10.0655 72.3752 9.86825Z" fill="#4FBA69"/>
<path d="M124.245 6.96811L125.427 3.85112C125.663 3.23956 125.86 2.82527 126.037 2.56881C126.215 2.33208 126.431 2.17425 126.727 2.09534C127.239 1.95725 127.573 2.15452 127.711 2.66745C127.81 3.08173 127.554 3.69329 126.924 4.50214L124.639 7.44158C124.482 7.63886 124.363 7.7375 124.304 7.75723C124.186 7.77695 124.127 7.75723 124.088 7.63886C124.029 7.55995 124.088 7.34294 124.245 6.96811Z" fill="#F16037"/>
<path d="M125.703 8.40832L127.849 5.8437C128.263 5.3505 128.597 5.01513 128.834 4.83758C129.07 4.66003 129.346 4.58112 129.641 4.60085C130.173 4.6403 130.429 4.93622 130.37 5.44914C130.33 5.88316 129.897 6.37635 129.011 6.92873L125.88 8.96069C125.663 9.09879 125.525 9.15797 125.447 9.15797C125.328 9.15797 125.269 9.09879 125.289 8.98042C125.309 8.92124 125.447 8.72396 125.703 8.40832Z" fill="#F16037"/>
<path d="M127.042 9.92748L129.976 8.36898C130.547 8.07307 130.98 7.87579 131.276 7.8166C131.571 7.73769 131.847 7.77715 132.103 7.91524C132.575 8.15198 132.693 8.50708 132.477 8.98055C132.28 9.35538 131.689 9.65129 130.665 9.82884L127.002 10.5193C126.746 10.5588 126.589 10.5785 126.53 10.539C126.431 10.4799 126.392 10.4009 126.451 10.322C126.49 10.2431 126.687 10.105 127.042 9.92748Z" fill="#F16037"/>
</svg>
