<svg width="260" height="70" viewBox="0 0 260 70" fill="none" xmlns="http://www.w3.org/2000/svg">
<rect y="0.325806" width="259.551" height="69.2135" rx="34.6068" fill="#141515"/>
<path d="M73.271 14.1686C68.9385 15.6322 65.5622 17.0958 66.0436 23.4382C70.376 22.4625 74.2338 20.0231 73.271 14.1686ZM59.5113 22.9748C55.34 22.9748 49.3147 26.6826 49.3147 33.6349C49.3147 43.368 55.8035 53.1012 59.5113 53.1012C62.2922 53.1012 64.6097 51.2473 66.4636 51.2473C68.3175 51.2473 70.1715 53.1012 72.9524 53.1012C76.6602 53.1012 80.8316 47.5394 81.7585 42.4411C78.5142 40.1237 76.1967 38.7332 76.1967 34.5619C76.1967 31.7809 78.5142 29.0001 81.2951 26.6826C79.9046 24.8287 77.1237 22.9748 74.3428 22.9748C71.5619 22.9748 68.5715 25.175 66.4636 25.2922C64.6097 25.2922 62.2922 22.9748 59.5113 22.9748Z" fill="#F5F5F5"/>
<path d="M103.734 25.4936C103.016 25.4936 102.257 25.4482 101.456 25.3574V15.9681C101.854 15.8903 102.272 15.8297 102.709 15.7864C103.146 15.7389 103.565 15.7151 103.967 15.7151C105.559 15.7151 106.755 16.1195 107.556 16.9285C108.356 17.7331 108.756 18.9616 108.756 20.6141C108.756 22.2882 108.339 23.5211 107.504 24.3127C106.673 25.1 105.417 25.4936 103.734 25.4936ZM103.941 24.5917C104.781 24.5917 105.475 24.4554 106.024 24.1829C106.574 23.9104 106.985 23.4821 107.257 22.8981C107.534 22.3098 107.673 21.5485 107.673 20.6141C107.673 19.2298 107.372 18.2176 106.771 17.5773C106.169 16.9371 105.246 16.617 104 16.617C103.546 16.617 103.048 16.6581 102.507 16.7403V24.5074C102.94 24.5636 103.418 24.5917 103.941 24.5917Z" fill="#F5F5F5"/>
<path d="M113.048 25.5391C112.105 25.5391 111.369 25.2427 110.842 24.6501C110.318 24.0531 110.056 23.1382 110.056 21.9054C110.056 20.6725 110.318 19.7576 110.842 19.1606C111.365 18.5636 112.1 18.2652 113.048 18.2652C113.999 18.2652 114.737 18.5615 115.26 19.1541C115.784 19.7468 116.046 20.6617 116.046 21.8989C116.046 23.1274 115.782 24.0423 115.254 24.6436C114.726 25.2406 113.991 25.5391 113.048 25.5391ZM113.048 24.6955C113.679 24.6955 114.16 24.4836 114.488 24.0596C114.817 23.6314 114.981 22.9176 114.981 21.9183C114.981 20.9018 114.817 20.1815 114.488 19.7576C114.16 19.3293 113.679 19.1152 113.048 19.1152C112.421 19.1152 111.94 19.3272 111.607 19.7511C111.279 20.175 111.114 20.8866 111.114 21.8859C111.114 22.8981 111.279 23.6206 111.607 24.0531C111.936 24.4814 112.416 24.6955 113.048 24.6955Z" fill="#F5F5F5"/>
<path d="M126.096 18.3755H127.076L125.026 25.4158H123.799L121.989 19.4007L120.166 25.4158H118.946L116.882 18.3755H117.901L119.608 24.3386L121.392 18.3755H122.612L124.39 24.3062L126.096 18.3755Z" fill="#F5F5F5"/>
<path d="M128.448 18.3755H129.324L129.395 19.1736H129.467C129.756 18.8794 130.09 18.6545 130.466 18.4988C130.847 18.343 131.251 18.2652 131.679 18.2652C132.384 18.2652 132.936 18.4641 133.334 18.8621C133.736 19.2558 133.937 19.8895 133.937 20.7633V25.4158H132.899V20.8088C132.899 20.2334 132.772 19.8203 132.516 19.5694C132.265 19.3185 131.902 19.1931 131.426 19.1931C131.076 19.1931 130.725 19.2688 130.375 19.4202C130.025 19.5716 129.728 19.8073 129.486 20.1274V25.4158H128.448V18.3755Z" fill="#F5F5F5"/>
<path d="M135.824 25.4158V14.9299H136.862V25.4158H135.824Z" fill="#F5F5F5"/>
<path d="M141.449 25.5391C140.506 25.5391 139.77 25.2427 139.243 24.6501C138.719 24.0531 138.457 23.1382 138.457 21.9054C138.457 20.6725 138.719 19.7576 139.243 19.1606C139.766 18.5636 140.501 18.2652 141.449 18.2652C142.401 18.2652 143.138 18.5615 143.661 19.1541C144.185 19.7468 144.447 20.6617 144.447 21.8989C144.447 23.1274 144.183 24.0423 143.655 24.6436C143.127 25.2406 142.392 25.5391 141.449 25.5391ZM141.449 24.6955C142.08 24.6955 142.561 24.4836 142.889 24.0596C143.218 23.6314 143.382 22.9176 143.382 21.9183C143.382 20.9018 143.218 20.1815 142.889 19.7576C142.561 19.3293 142.08 19.1152 141.449 19.1152C140.822 19.1152 140.341 19.3272 140.008 19.7511C139.68 20.175 139.515 20.8866 139.515 21.8859C139.515 22.8981 139.68 23.6206 140.008 24.0531C140.337 24.4814 140.817 24.6955 141.449 24.6955Z" fill="#F5F5F5"/>
<path d="M148.134 18.2652C148.749 18.2652 149.253 18.3452 149.646 18.5052C150.04 18.6653 150.336 18.9313 150.535 19.3034C150.734 19.6754 150.834 20.175 150.834 20.8023V25.4158H149.964L149.886 24.6306H149.815C149.59 24.9161 149.298 25.1389 148.939 25.299C148.584 25.4547 148.199 25.5326 147.784 25.5326C147.347 25.5326 146.969 25.4569 146.648 25.3055C146.328 25.1497 146.082 24.927 145.909 24.6371C145.74 24.3473 145.656 24.0056 145.656 23.6119C145.656 22.989 145.859 22.5088 146.266 22.1714C146.672 21.8297 147.319 21.6155 148.206 21.529L149.815 21.3538V20.7504C149.815 20.3308 149.748 20.002 149.614 19.7641C149.484 19.5261 149.287 19.3596 149.023 19.2644C148.764 19.1649 148.422 19.1152 147.998 19.1152C147.708 19.1152 147.397 19.1411 147.064 19.1931C146.735 19.245 146.413 19.325 146.097 19.4331V18.5766C146.387 18.4771 146.716 18.4014 147.083 18.3495C147.451 18.2933 147.801 18.2652 148.134 18.2652ZM148.044 24.728C148.377 24.728 148.697 24.6588 149.004 24.5203C149.311 24.3819 149.581 24.1656 149.815 23.8715V22.0546L148.277 22.2233C147.728 22.2795 147.328 22.4136 147.077 22.6256C146.83 22.8376 146.707 23.1339 146.707 23.5146C146.707 23.9126 146.819 24.2154 147.044 24.423C147.269 24.6263 147.602 24.728 148.044 24.728Z" fill="#F5F5F5"/>
<path d="M155.118 25.5391C154.582 25.5391 154.106 25.4201 153.691 25.1822C153.275 24.9443 152.947 24.5658 152.704 24.0467C152.466 23.5232 152.348 22.8549 152.348 22.0416C152.348 20.7828 152.646 19.8398 153.243 19.2125C153.844 18.5809 154.731 18.2652 155.903 18.2652C156.241 18.2652 156.621 18.2976 157.045 18.3625V14.9299H158.084V25.4158H157.195L157.123 24.6501H157.058C156.838 24.9226 156.561 25.1389 156.228 25.299C155.895 25.459 155.525 25.5391 155.118 25.5391ZM155.358 24.6436C155.687 24.6436 156.001 24.5722 156.299 24.4295C156.598 24.2824 156.846 24.064 157.045 23.7741V19.2385C156.881 19.2039 156.695 19.1757 156.487 19.1541C156.28 19.1282 156.079 19.1152 155.884 19.1152C155.049 19.1152 154.426 19.3401 154.015 19.79C153.609 20.2356 153.405 20.9537 153.405 21.9443C153.405 22.9263 153.574 23.6227 153.911 24.0337C154.253 24.4403 154.735 24.6436 155.358 24.6436Z" fill="#F5F5F5"/>
<path d="M165.832 25.5391C164.889 25.5391 164.154 25.2427 163.626 24.6501C163.103 24.0531 162.841 23.1382 162.841 21.9054C162.841 20.6725 163.103 19.7576 163.626 19.1606C164.15 18.5636 164.885 18.2652 165.832 18.2652C166.784 18.2652 167.522 18.5615 168.045 19.1541C168.568 19.7468 168.83 20.6617 168.83 21.8989C168.83 23.1274 168.566 24.0423 168.039 24.6436C167.511 25.2406 166.775 25.5391 165.832 25.5391ZM165.832 24.6955C166.464 24.6955 166.944 24.4836 167.273 24.0596C167.602 23.6314 167.766 22.9176 167.766 21.9183C167.766 20.9018 167.602 20.1815 167.273 19.7576C166.944 19.3293 166.464 19.1152 165.832 19.1152C165.205 19.1152 164.725 19.3272 164.392 19.7511C164.063 20.175 163.899 20.8866 163.899 21.8859C163.899 22.8981 164.063 23.6206 164.392 24.0531C164.721 24.4814 165.201 24.6955 165.832 24.6955Z" fill="#F5F5F5"/>
<path d="M170.422 18.3755H171.298L171.369 19.1736H171.441C171.731 18.8794 172.064 18.6545 172.44 18.4988C172.821 18.343 173.225 18.2652 173.653 18.2652C174.359 18.2652 174.91 18.4641 175.308 18.8621C175.71 19.2558 175.912 19.8895 175.912 20.7633V25.4158H174.873V20.8088C174.873 20.2334 174.746 19.8203 174.491 19.5694C174.24 19.3185 173.876 19.1931 173.4 19.1931C173.05 19.1931 172.7 19.2688 172.349 19.4202C171.999 19.5716 171.703 19.8073 171.46 20.1274V25.4158H170.422V18.3755Z" fill="#F5F5F5"/>
<path d="M183.88 24.6371C184.126 24.6371 184.414 24.6025 184.743 24.5333V25.4093C184.375 25.4958 184.014 25.5391 183.659 25.5391C182.141 25.5391 181.382 24.7604 181.382 23.2031V19.232H180.051V18.3755H181.382L181.55 15.8124H182.42V18.3755H184.632V19.232H182.42V23.0409C182.42 23.6162 182.537 24.0272 182.77 24.2738C183.008 24.516 183.378 24.6371 183.88 24.6371Z" fill="#F5F5F5"/>
<path d="M185.846 14.9299H186.884V19.1606H186.949C187.23 18.8665 187.554 18.6437 187.922 18.4923C188.29 18.3409 188.688 18.2652 189.116 18.2652C189.804 18.2652 190.344 18.4641 190.738 18.8621C191.136 19.2558 191.335 19.8874 191.335 20.7568V25.4158H190.297V20.8023C190.297 20.2269 190.169 19.8181 189.914 19.5759C189.663 19.3293 189.3 19.206 188.824 19.206C188.465 19.206 188.11 19.2817 187.76 19.4331C187.414 19.5845 187.122 19.8181 186.884 20.1339V25.4158H185.846V14.9299Z" fill="#F5F5F5"/>
<path d="M198.413 22.2428H193.903C193.92 22.8354 194.017 23.3113 194.195 23.6703C194.376 24.0294 194.64 24.2889 194.986 24.449C195.333 24.609 195.774 24.689 196.31 24.689C196.821 24.689 197.405 24.5939 198.062 24.4035V25.2536C197.422 25.4439 196.797 25.5391 196.187 25.5391C195.066 25.5391 194.229 25.2492 193.676 24.6696C193.126 24.0899 192.852 23.1642 192.852 21.8924C192.852 20.6855 193.1 19.7792 193.598 19.1736C194.1 18.568 194.8 18.2652 195.7 18.2652C196.578 18.2652 197.249 18.568 197.712 19.1736C198.179 19.7749 198.413 20.6898 198.413 21.9183V22.2428ZM195.687 19.0243C195.121 19.0243 194.686 19.219 194.383 19.6083C194.08 19.9977 193.92 20.6379 193.903 21.529H197.413C197.396 20.6336 197.242 19.9933 196.953 19.6083C196.667 19.219 196.245 19.0243 195.687 19.0243Z" fill="#F5F5F5"/>
<path d="M109.687 49.6403L108.124 44.849H101.623L100.059 49.6403H97.1125L102.714 32.9945H107.055L112.656 49.6403H109.687ZM102.399 42.4421H107.336L104.862 34.884L102.399 42.4421Z" fill="#F5F5F5"/>
<path d="M114.331 37.3696H116.817L117.008 38.6855H117.154C117.522 38.2207 117.986 37.8532 118.549 37.5833C119.119 37.3134 119.756 37.1784 120.461 37.1784C121.406 37.1784 122.249 37.3884 122.991 37.8083C123.734 38.2282 124.322 38.8917 124.757 39.799C125.2 40.7063 125.421 41.8648 125.421 43.2744C125.421 45.4339 124.87 47.0722 123.768 48.1894C122.665 49.3066 121.049 49.8653 118.92 49.8653C118.485 49.8653 117.938 49.8278 117.278 49.7528V54.5891H114.331V37.3696ZM118.92 47.5821C120.112 47.5821 120.997 47.2634 121.574 46.6261C122.159 45.9812 122.452 44.9427 122.452 43.5106C122.452 42.0784 122.208 41.0699 121.721 40.4851C121.233 39.9002 120.54 39.6078 119.64 39.6078C119.182 39.6078 118.744 39.7015 118.324 39.889C117.904 40.0689 117.555 40.3389 117.278 40.6988V47.4246C117.803 47.5296 118.35 47.5821 118.92 47.5821Z" fill="#F5F5F5"/>
<path d="M127.753 37.3696H130.239L130.43 38.6855H130.576C130.944 38.2207 131.408 37.8532 131.971 37.5833C132.541 37.3134 133.178 37.1784 133.883 37.1784C134.828 37.1784 135.671 37.3884 136.413 37.8083C137.156 38.2282 137.744 38.8917 138.179 39.799C138.622 40.7063 138.843 41.8648 138.843 43.2744C138.843 45.4339 138.292 47.0722 137.189 48.1894C136.087 49.3066 134.471 49.8653 132.342 49.8653C131.907 49.8653 131.36 49.8278 130.7 49.7528V54.5891H127.753V37.3696ZM132.342 47.5821C133.534 47.5821 134.419 47.2634 134.996 46.6261C135.581 45.9812 135.874 44.9427 135.874 43.5106C135.874 42.0784 135.63 41.0699 135.142 40.4851C134.655 39.9002 133.962 39.6078 133.062 39.6078C132.604 39.6078 132.166 39.7015 131.746 39.889C131.326 40.0689 130.977 40.3389 130.7 40.6988V47.4246C131.225 47.5296 131.772 47.5821 132.342 47.5821Z" fill="#F5F5F5"/>
<path d="M150.814 49.854C150.05 49.854 149.281 49.794 148.509 49.6741C147.744 49.5541 147.028 49.3816 146.361 49.1567V46.6935C147.043 46.926 147.778 47.1059 148.565 47.2334C149.36 47.3534 150.11 47.4134 150.814 47.4134C151.992 47.4134 152.854 47.2147 153.401 46.8173C153.949 46.4199 154.222 45.8388 154.222 45.074C154.222 44.6391 154.136 44.2792 153.964 43.9942C153.799 43.7093 153.521 43.4619 153.131 43.2519C152.741 43.042 152.198 42.847 151.5 42.6671L150.376 42.3746C148.906 42.0072 147.811 41.4411 147.092 40.6763C146.372 39.9115 146.012 38.9105 146.012 37.6733C146.012 36.1212 146.567 34.9177 147.676 34.0629C148.794 33.2082 150.428 32.7808 152.58 32.7808C153.285 32.7808 153.967 32.8258 154.627 32.9157C155.295 32.9982 155.891 33.1182 156.416 33.2756V35.7388C155.876 35.5738 155.287 35.4463 154.65 35.3564C154.012 35.2664 153.371 35.2214 152.726 35.2214C151.429 35.2214 150.484 35.4201 149.892 35.8175C149.3 36.2149 149.004 36.781 149.004 37.5158C149.004 37.9282 149.079 38.2731 149.229 38.5506C149.386 38.828 149.641 39.0679 149.993 39.2704C150.353 39.4728 150.844 39.6603 151.467 39.8328L152.591 40.1139C154.189 40.5113 155.358 41.0924 156.101 41.8573C156.85 42.6221 157.225 43.6268 157.225 44.8715C157.225 45.9062 156.97 46.7985 156.461 47.5483C155.958 48.2982 155.223 48.8718 154.256 49.2692C153.296 49.6591 152.149 49.854 150.814 49.854Z" fill="#F5F5F5"/>
<path d="M165.204 47.4134C165.564 47.4134 166.017 47.3609 166.565 47.2559V49.6178C165.852 49.7828 165.144 49.8653 164.439 49.8653C161.53 49.8653 160.075 48.3994 160.075 45.4676V39.7203H157.961V37.3696H160.075L160.592 32.9945H163.022V37.3696H166.452V39.7203H163.022V44.9952C163.022 45.5951 163.097 46.0712 163.247 46.4236C163.404 46.776 163.64 47.031 163.955 47.1884C164.27 47.3384 164.686 47.4134 165.204 47.4134Z" fill="#F5F5F5"/>
<path d="M173.345 49.8653C171.553 49.8653 170.151 49.3366 169.139 48.2794C168.134 47.2222 167.632 45.6401 167.632 43.5331C167.632 41.4111 168.127 39.8215 169.116 38.7643C170.114 37.707 171.523 37.1784 173.345 37.1784C175.167 37.1784 176.573 37.707 177.563 38.7643C178.56 39.8215 179.059 41.4074 179.059 43.5218C179.059 44.9315 178.826 46.1087 178.362 47.0535C177.904 47.9982 177.248 48.703 176.393 49.1679C175.539 49.6328 174.523 49.8653 173.345 49.8653ZM173.345 47.5933C174.253 47.5933 174.935 47.2859 175.392 46.6711C175.857 46.0562 176.09 45.014 176.09 43.5443C176.09 42.0522 175.857 40.9987 175.392 40.3839C174.935 39.7615 174.253 39.4504 173.345 39.4504C172.438 39.4504 171.752 39.7578 171.287 40.3726C170.83 40.9875 170.601 42.0297 170.601 43.4993C170.601 44.5116 170.706 45.3176 170.916 45.9175C171.133 46.5173 171.441 46.9485 171.838 47.2109C172.243 47.4659 172.746 47.5933 173.345 47.5933Z" fill="#F5F5F5"/>
<path d="M181.397 37.3696H183.826L184.051 38.9667H184.209C184.569 38.3894 185.041 37.9545 185.626 37.662C186.218 37.3696 186.867 37.2234 187.572 37.2234C187.894 37.2234 188.22 37.2496 188.55 37.3021V39.979C188.258 39.9265 187.875 39.9002 187.403 39.9002C186.818 39.9002 186.241 40.0202 185.671 40.2601C185.109 40.5001 184.666 40.8413 184.344 41.2836V49.6403H181.397V37.3696Z" fill="#F5F5F5"/>
<path d="M199.907 44.3879H192.315C192.353 45.1827 192.503 45.8163 192.765 46.2886C193.028 46.7535 193.433 47.091 193.98 47.3009C194.527 47.5108 195.258 47.6158 196.173 47.6158C197.073 47.6158 198.1 47.4734 199.255 47.1884V49.4266C198.078 49.719 196.915 49.8653 195.768 49.8653C194.306 49.8653 193.103 49.6441 192.158 49.2017C191.221 48.7593 190.52 48.0732 190.055 47.1434C189.59 46.2062 189.357 44.9915 189.357 43.4993C189.357 42.1272 189.571 40.9687 189.998 40.024C190.426 39.0792 191.044 38.3706 191.854 37.8982C192.664 37.4184 193.643 37.1784 194.79 37.1784C196.462 37.1784 197.733 37.7183 198.603 38.798C199.472 39.8702 199.907 41.4673 199.907 43.5893V44.3879ZM194.767 39.1017C193.972 39.1017 193.369 39.3716 192.956 39.9115C192.544 40.4514 192.327 41.3549 192.304 42.6221H197.152C197.129 41.3549 196.919 40.4514 196.522 39.9115C196.132 39.3716 195.547 39.1017 194.767 39.1017Z" fill="#F5F5F5"/>
</svg>
