<svg width="260" height="70" viewBox="0 0 260 70" fill="none" xmlns="http://www.w3.org/2000/svg">
<rect x="0.101562" y="0.325806" width="259.551" height="69.2135" rx="34.6068" fill="#141515"/>
<path d="M82.8118 34.0674C82.8118 45.5277 73.508 54.8315 62.0478 54.8315C50.5875 54.8315 41.2837 45.5277 41.2837 34.0674C41.2837 22.6995 50.4026 13.4574 61.7397 13.3033C61.8321 13.3033 61.9553 13.3033 62.0478 13.3033H81.179C81.2098 13.3033 81.2098 13.3033 81.2407 13.3033C81.8568 13.3033 82.3497 13.7963 82.3497 14.4124C82.3497 14.5972 82.2881 14.7821 82.1957 14.9361L79.115 22.2682C81.4255 25.6262 82.8118 29.6928 82.8118 34.0674Z" fill="white"/>
<path d="M67.4719 18.182L64.7305 24.9497C64.5806 25.3352 64.1309 25.528 63.7239 25.378C63.4027 25.2495 63.2314 24.9497 63.2528 24.6285L63.6169 17.3468C63.6811 16.2331 64.6234 15.3978 65.7157 15.4407C66.8294 15.5049 67.6646 16.4473 67.6218 17.5395C67.6004 17.7537 67.5361 17.9678 67.4719 18.182Z" fill="#F16037"/>
<path fill-rule="evenodd" clip-rule="evenodd" d="M74.2182 15.0337H78.6943C79.1869 15.0337 79.658 15.5263 79.6366 15.976C79.6366 16.5069 79.3836 16.7263 79.2115 16.8755C79.2031 16.8828 79.1949 16.8899 79.1869 16.897L68.4785 27.2198V27.2413C68.1358 27.6053 67.5575 27.6053 67.2149 27.2413C66.9365 26.9628 66.8936 26.5559 67.065 26.2132C67.065 26.2132 72.1836 16.6399 72.5905 15.8904C72.9974 15.1408 73.8755 15.0337 74.2182 15.0337ZM80.8359 33.923C80.8359 44.3744 72.3763 52.834 61.9249 52.834C51.495 52.834 43.0139 44.3744 43.0139 33.923C43.0139 24.3925 50.06 16.5112 59.2264 15.2047C59.2666 15.1947 59.3067 15.1894 59.3447 15.1843C59.3877 15.1786 59.4279 15.1733 59.462 15.1619C59.7618 15.1833 60.0188 15.3761 60.1045 15.6759L60.1259 15.9543L60.8541 24.4568L60.8755 24.6924C60.8541 24.9922 60.6399 25.2278 60.3615 25.3135C60.3187 25.3135 60.2758 25.3135 60.233 25.3349C56.2066 26.1273 53.144 29.6825 53.144 33.9444C53.144 38.7846 57.0633 42.7253 61.9249 42.7253C66.7651 42.7253 70.6844 38.806 70.7058 33.9872V33.9658V33.923V33.8802C70.7272 33.5803 70.92 33.3447 71.1984 33.2591L71.3269 33.2377L79.8293 31.4815L80.0221 31.4387H80.0649C80.3862 31.4387 80.6646 31.6528 80.7503 31.9741C80.7503 32.0039 80.7549 32.0337 80.7598 32.0657C80.7655 32.1026 80.7717 32.1423 80.7717 32.1882C80.8145 32.7237 80.8359 33.3233 80.8359 33.923ZM67.9216 33.9232C67.9216 37.2214 65.2445 39.9199 61.9463 39.9199C58.6481 39.9199 55.9496 37.2428 55.9496 33.9232C55.9496 30.625 58.6267 27.9265 61.9463 27.9265C65.2445 27.9479 67.9216 30.625 67.9216 33.9232Z" fill="url(#paint0_linear)"/>
<path d="M77.7305 28.4405L70.7915 30.6893C70.3846 30.8178 69.9562 30.6036 69.8277 30.1967C69.7206 29.8755 69.8491 29.5328 70.0847 29.34L75.8887 24.9282C76.7668 24.2643 78.0304 24.4356 78.6943 25.3137C79.3582 26.1918 79.1869 27.4554 78.3088 28.1193C78.1374 28.2692 77.9233 28.3763 77.7305 28.4405Z" fill="#F16037"/>
<path d="M58.8979 43.9312C58.9916 43.7205 59.2044 43.5842 59.4397 43.5842H80.4908C80.8171 43.5842 81.0815 43.8425 81.0815 44.161V52.5243C81.0815 52.8429 80.8171 53.1011 80.4908 53.1011H55.7178C55.2925 53.1011 55.0065 52.6754 55.176 52.2945L58.8979 43.9312Z" fill="url(#paint1_linear)"/>
<path d="M62.3911 45.8435C62.9214 45.7407 63.4446 45.6893 63.9609 45.6893C64.7411 45.6893 65.3227 45.8411 65.7058 46.1448C66.0913 46.4485 66.284 46.9215 66.284 47.5639C66.284 48.1806 66.0948 48.6466 65.7163 48.962C65.3379 49.2773 64.7773 49.435 64.0345 49.435C63.9293 49.435 63.7623 49.4303 63.5334 49.421V50.9382H62.3911V45.8435ZM64.045 48.58C64.4374 48.58 64.7236 48.5006 64.9034 48.3418C65.0833 48.1829 65.1732 47.926 65.1732 47.5709C65.1732 47.2135 65.0833 46.953 64.9034 46.7895C64.7236 46.626 64.4444 46.5443 64.066 46.5443C63.8744 46.5443 63.6969 46.5583 63.5334 46.5863V48.5485C63.7039 48.5695 63.8744 48.58 64.045 48.58Z" fill="white"/>
<path d="M70.3255 50.9382L69.0011 49.0356H68.938C68.7745 49.0356 68.5934 49.0297 68.3949 49.018V50.9382H67.2701V45.868C67.5177 45.8143 67.7817 45.7711 68.062 45.7384C68.3423 45.7056 68.6191 45.6893 68.8924 45.6893C69.6423 45.6893 70.2041 45.8259 70.5778 46.0993C70.9516 46.3702 71.1385 46.7884 71.1385 47.3537C71.1385 47.7227 71.0485 48.0334 70.8687 48.2857C70.6911 48.538 70.4342 48.7272 70.0978 48.8534L71.5694 50.9382H70.3255ZM68.3949 48.1561C68.5911 48.1771 68.7791 48.1876 68.959 48.1876C69.3374 48.1876 69.6166 48.1222 69.7965 47.9914C69.9763 47.8606 70.0663 47.6492 70.0663 47.3572C70.0663 47.0698 69.9798 46.8608 69.807 46.73C69.6364 46.5968 69.3701 46.5302 69.0081 46.5302C68.8025 46.5302 68.5981 46.5478 68.3949 46.5828V48.1561Z" fill="white"/>
<path d="M74.3889 51.0048C73.8867 51.0048 73.4522 50.9078 73.0855 50.7139C72.7211 50.5177 72.4384 50.2211 72.2375 49.8239C72.039 49.4268 71.9397 48.9339 71.9397 48.3453C71.9397 47.7566 72.039 47.2637 72.2375 46.8666C72.4384 46.4695 72.7211 46.174 73.0855 45.9801C73.4522 45.7839 73.8867 45.6858 74.3889 45.6858C74.8912 45.6858 75.3245 45.7839 75.6889 45.9801C76.0557 46.1763 76.3383 46.473 76.5369 46.8701C76.7354 47.2672 76.8347 47.759 76.8347 48.3453C76.8347 48.9316 76.7343 49.4233 76.5334 49.8204C76.3348 50.2176 76.0521 50.5142 75.6854 50.7104C75.321 50.9067 74.8888 51.0048 74.3889 51.0048ZM74.3889 50.0832C74.8024 50.0832 75.1178 49.9466 75.335 49.6733C75.5523 49.4 75.6609 48.9655 75.6609 48.3698C75.6609 47.7531 75.5511 47.3058 75.3315 47.0278C75.1143 46.7475 74.8001 46.6073 74.3889 46.6073C73.9755 46.6073 73.659 46.744 73.4394 47.0173C73.2221 47.2906 73.1135 47.7251 73.1135 48.3208C73.1135 48.9398 73.2221 49.3883 73.4394 49.6663C73.6566 49.9442 73.9731 50.0832 74.3889 50.0832Z" fill="white"/>
<path fill-rule="evenodd" clip-rule="evenodd" d="M59.4397 41.8539H80.4908C81.7335 41.8539 82.8119 42.8481 82.8119 44.161V52.5243C82.8119 53.8373 81.7335 54.8314 80.4908 54.8314H55.7179C54.1056 54.8314 52.89 53.1755 53.5952 51.5909L57.317 43.2276C57.6959 42.3762 58.5389 41.8539 59.4397 41.8539ZM59.4397 43.5842C59.2045 43.5842 58.9916 43.7205 58.8979 43.9311L55.1761 52.2944C55.0065 52.6754 55.2925 53.1011 55.7179 53.1011H80.4908C80.8171 53.1011 81.0816 52.8428 81.0816 52.5243V44.161C81.0816 43.8425 80.8171 43.5842 80.4908 43.5842H59.4397Z" fill="white"/>
<path d="M108.285 39.8313H112.419C111.926 41.444 110.962 42.7772 109.527 43.7879C108.092 44.7986 106.528 45.3146 104.815 45.3146C103.787 45.3146 102.78 45.1211 101.774 44.7125C100.767 44.304 99.8887 43.7234 99.0962 42.9923C98.3252 42.2397 97.704 41.358 97.2971 40.3259C96.8687 39.2937 96.6545 38.197 96.6545 37.0574C96.6545 34.821 97.447 32.9502 99.032 31.3805C100.617 29.8322 102.545 29.0581 104.794 29.0581C106.507 29.0581 108.071 29.5742 109.527 30.6063C110.983 31.6385 111.926 32.9717 112.397 34.606H108.263C107.856 33.9394 107.364 33.4448 106.807 33.1222C106.25 32.7997 105.543 32.6492 104.751 32.6492C103.423 32.6492 102.373 33.0792 101.559 33.9179C100.745 34.7565 100.36 35.8317 100.36 37.1219C100.36 38.4551 100.788 39.5732 101.645 40.4334C102.502 41.315 103.594 41.7451 104.943 41.7451C105.629 41.7451 106.25 41.5731 106.85 41.229C107.428 40.8634 107.921 40.4119 108.285 39.8313Z" fill="#F5F5F5"/>
<path d="M121.992 29.0581C124.22 29.0581 126.105 29.8527 127.647 31.4418C129.189 33.031 129.981 34.9637 129.981 37.2186C129.981 39.452 129.189 41.3632 127.583 42.9524C125.976 44.5415 124.07 45.3146 121.821 45.3146C119.615 45.3146 117.709 44.5201 116.124 42.9094C114.517 41.3203 113.725 39.409 113.725 37.1971C113.725 34.9208 114.517 32.988 116.124 31.3989C117.73 29.8527 119.679 29.0581 121.992 29.0581ZM121.842 32.6444C121.264 32.6444 120.686 32.7733 120.15 33.0095C119.615 33.2457 119.122 33.5893 118.715 34.0188C117.88 34.8563 117.452 35.9301 117.452 37.2186C117.452 38.4641 117.88 39.5379 118.715 40.4184C119.551 41.2988 120.6 41.7283 121.864 41.7283C123.149 41.7283 124.22 41.2988 125.055 40.4398C125.891 39.5808 126.319 38.5071 126.319 37.2186C126.319 35.9516 125.891 34.8778 125.034 33.9759C124.156 33.0739 123.106 32.6444 121.842 32.6444Z" fill="#F5F5F5"/>
<path d="M116.788 27.7629L120.322 23.9651H123.235L126.812 27.7629H123.235L121.757 26.0035L120.043 27.7629H116.788Z" fill="#F5F5F5"/>
<path d="M142.961 39.8313H147.095C146.602 41.444 145.638 42.7772 144.203 43.7879C142.768 44.7986 141.205 45.3146 139.491 45.3146C138.463 45.3146 137.456 45.1211 136.45 44.7125C135.443 44.304 134.565 43.7234 133.773 42.9923C133.001 42.2397 132.38 41.358 131.973 40.3259C131.545 39.2937 131.331 38.197 131.331 37.0574C131.331 34.821 132.123 32.9502 133.708 31.3805C135.293 29.8322 137.221 29.0581 139.47 29.0581C141.183 29.0581 142.747 29.5742 144.203 30.6063C145.66 31.6385 146.602 32.9717 147.073 34.606H142.94C142.533 33.9394 142.04 33.4448 141.483 33.1222C140.905 32.7997 140.219 32.6492 139.427 32.6492C138.099 32.6492 137.05 33.0792 136.236 33.9179C135.422 34.7565 135.015 35.8317 135.015 37.1219C135.015 38.4551 135.443 39.5732 136.3 40.4334C137.157 41.315 138.249 41.7451 139.598 41.7451C140.284 41.7451 140.926 41.5731 141.505 41.229C142.126 40.8634 142.597 40.4119 142.961 39.8313Z" fill="#F5F5F5"/>
<path d="M167.721 39.8313H171.855C171.362 41.444 170.398 42.7772 168.963 43.7879C167.528 44.7986 165.965 45.3146 164.251 45.3146C163.223 45.3146 162.216 45.1211 161.21 44.7125C160.203 44.304 159.325 43.7234 158.533 42.9923C157.74 42.2397 157.14 41.358 156.733 40.3259C156.305 39.2937 156.091 38.197 156.091 37.0574C156.091 34.821 156.883 32.9502 158.468 31.3805C160.053 29.8322 161.981 29.0581 164.23 29.0581C165.943 29.0581 167.507 29.5742 168.963 30.6063C170.42 31.6385 171.362 32.9717 171.833 34.606H167.7C167.293 33.9394 166.821 33.4448 166.243 33.1222C165.665 32.7997 164.979 32.6492 164.187 32.6492C162.859 32.6492 161.81 33.0792 160.996 33.9179C160.182 34.7565 159.775 35.8317 159.775 37.1219C159.775 38.4551 160.203 39.5732 161.06 40.4334C161.917 41.315 163.009 41.7451 164.358 41.7451C165.044 41.7451 165.686 41.5731 166.265 41.229C166.864 40.8634 167.357 40.4119 167.721 39.8313Z" fill="#F5F5F5"/>
<path d="M181.493 29.0581C183.72 29.0581 185.605 29.8527 187.147 31.4418C188.689 33.031 189.482 34.9637 189.482 37.2186C189.482 39.452 188.689 41.3632 187.083 42.9524C185.498 44.5415 183.57 45.3146 181.322 45.3146C179.115 45.3146 177.209 44.5201 175.624 42.9094C174.018 41.3203 173.225 39.409 173.225 37.1971C173.225 34.9208 174.018 32.988 175.624 31.3989C177.231 29.8527 179.18 29.0581 181.493 29.0581ZM181.322 32.6444C180.743 32.6444 180.165 32.7733 179.629 33.0095C179.094 33.2457 178.601 33.5893 178.194 34.0188C177.359 34.8563 176.931 35.9301 176.931 37.2186C176.931 38.4641 177.359 39.5379 178.194 40.4184C179.03 41.2988 180.079 41.7283 181.343 41.7283C182.628 41.7283 183.699 41.2988 184.534 40.4398C185.391 39.5808 185.798 38.5071 185.798 37.2186C185.798 35.9516 185.37 34.8778 184.513 33.9759C183.656 33.0739 182.607 32.6444 181.322 32.6444Z" fill="#F5F5F5"/>
<path d="M176.288 27.7629L179.822 23.9651H182.735L186.312 27.7629H182.735L181.236 26.0035L179.544 27.7629H176.288Z" fill="#F5F5F5"/>
<path d="M202.397 39.8313H206.531C206.038 41.444 205.075 42.7772 203.64 43.7879C202.205 44.7986 200.641 45.3146 198.928 45.3146C197.899 45.3146 196.893 45.1211 195.886 44.7125C194.88 44.304 194.001 43.7234 193.209 42.9923C192.416 42.2397 191.838 41.358 191.41 40.3259C190.981 39.2937 190.789 38.197 190.789 37.0574C190.789 34.821 191.581 32.9502 193.166 31.3805C194.751 29.8322 196.679 29.0581 198.928 29.0581C200.641 29.0581 202.205 29.5742 203.661 30.6063C205.118 31.6385 206.06 32.9717 206.531 34.606H202.397C201.99 33.9394 201.498 33.4448 200.941 33.1222C200.363 32.7997 199.677 32.6492 198.885 32.6492C197.557 32.6492 196.507 33.0792 195.693 33.9179C194.879 34.7565 194.473 35.8317 194.473 37.1219C194.473 38.4551 194.901 39.5732 195.758 40.4334C196.614 41.315 197.707 41.7451 199.056 41.7451C199.741 41.7451 200.384 41.5731 200.962 41.229C201.562 40.8634 202.033 40.4119 202.397 39.8313Z" fill="#F5F5F5"/>
<path d="M125.634 19.9742L126.919 16.6055C127.176 15.9403 127.39 15.4897 127.583 15.2323C127.775 14.9748 128.011 14.8031 128.332 14.7173C128.889 14.5671 129.253 14.7817 129.382 15.3181C129.489 15.7687 129.21 16.4338 128.525 17.2921L126.041 20.4677C125.869 20.6823 125.741 20.7896 125.676 20.811C125.548 20.8325 125.484 20.811 125.441 20.6823C125.398 20.6179 125.462 20.3819 125.634 19.9742Z" fill="#4FBA69"/>
<path d="M127.219 21.5405L129.532 18.7725C129.982 18.2361 130.346 17.8714 130.603 17.6783C130.86 17.4851 131.16 17.3993 131.481 17.4422C132.059 17.4851 132.316 17.7855 132.273 18.3649C132.23 18.8369 131.759 19.3519 130.817 19.9527L127.433 22.1413C127.197 22.2915 127.047 22.3558 126.962 22.3558C126.833 22.3558 126.769 22.2915 126.79 22.1627C126.79 22.0769 126.94 21.8838 127.219 21.5405Z" fill="#4FBA69"/>
<path d="M128.654 23.1714L131.824 21.4763C132.445 21.1545 132.916 20.9399 133.216 20.8755C133.537 20.7897 133.837 20.8326 134.115 20.9828C134.629 21.2403 134.758 21.6265 134.501 22.1415C134.287 22.5492 133.644 22.871 132.552 23.0641L128.589 23.8151C128.332 23.858 128.161 23.8795 128.075 23.8366C127.968 23.7722 127.925 23.7078 127.99 23.6005C128.054 23.5147 128.268 23.386 128.654 23.1714Z" fill="#4FBA69"/>
<path d="M185.07 20.0171L186.355 16.6269C186.612 15.9617 186.826 15.5111 187.019 15.2322C187.212 14.9747 187.447 14.8031 187.769 14.7172C188.325 14.567 188.69 14.7816 188.839 15.3395C188.947 15.7901 188.668 16.4552 187.983 17.335L185.498 20.532C185.327 20.7466 185.198 20.8539 185.134 20.8753C185.006 20.8968 184.941 20.8753 184.898 20.7466C184.834 20.6608 184.898 20.4247 185.07 20.0171Z" fill="#F16037"/>
<path d="M186.655 21.5835L188.989 18.7941C189.439 18.2577 189.803 17.8929 190.06 17.6998C190.317 17.5067 190.617 17.4208 190.938 17.4423C191.517 17.4852 191.795 17.8071 191.731 18.3649C191.688 18.837 191.217 19.3734 190.253 19.9742L186.848 22.1843C186.612 22.3345 186.462 22.3988 186.376 22.3988C186.248 22.3988 186.184 22.3345 186.205 22.2057C186.226 22.1413 186.376 21.9268 186.655 21.5835Z" fill="#F16037"/>
<path d="M188.111 23.2357L191.303 21.5407C191.924 21.2188 192.395 21.0042 192.716 20.9399C193.037 20.854 193.337 20.8969 193.616 21.0471C194.13 21.3046 194.258 21.6908 194.023 22.2058C193.809 22.6135 193.166 22.9353 192.052 23.1285L188.068 23.8794C187.79 23.9224 187.619 23.9438 187.554 23.9009C187.447 23.8365 187.404 23.7507 187.469 23.6649C187.512 23.579 187.726 23.4288 188.111 23.2357Z" fill="#F16037"/>
<defs>
<linearGradient id="paint0_linear" x1="43.0139" y1="38.1338" x2="80.8359" y2="38.1338" gradientUnits="userSpaceOnUse">
<stop stop-color="#97C93D"/>
<stop offset="1" stop-color="#4FBA69"/>
</linearGradient>
<linearGradient id="paint1_linear" x1="81.0815" y1="43.5842" x2="36.6895" y2="56.8146" gradientUnits="userSpaceOnUse">
<stop stop-color="#D8242B"/>
<stop offset="1" stop-color="#F17D21"/>
</linearGradient>
</defs>
</svg>
