<svg width="301" height="80" viewBox="0 0 301 80" fill="none" xmlns="http://www.w3.org/2000/svg">
<rect x="0.399902" width="300" height="80" rx="40" fill="#F5F5F5"/>
<path d="M96 39C96 52.2463 85.2463 63 72 63C58.7537 63 48 52.2463 48 39C48 25.8605 58.5401 15.178 71.6439 15C71.7507 15 71.8932 15 72 15H94.1128C94.1484 15 94.1484 15 94.184 15C94.8961 15 95.4659 15.5697 95.4659 16.2819C95.4659 16.4956 95.3947 16.7092 95.2878 16.8872L91.727 25.362C94.3976 29.2433 96 33.9436 96 39Z" fill="white"/>
<path d="M78.2696 20.6389L75.101 28.4613C74.9277 28.9069 74.4079 29.1297 73.9375 28.9564C73.5662 28.8079 73.3682 28.4613 73.3929 28.09L73.8138 19.6735C73.888 18.3862 74.9772 17.4208 76.2397 17.4703C77.5269 17.5446 78.4924 18.6338 78.4428 19.8963C78.4181 20.1438 78.3438 20.3914 78.2696 20.6389Z" fill="#F16037"/>
<path fill-rule="evenodd" clip-rule="evenodd" d="M86.0672 17H91.2409C91.8102 17 92.3548 17.5694 92.3301 18.0892C92.3301 18.7027 92.0376 18.9564 91.8387 19.1288C91.829 19.1373 91.8195 19.1455 91.8102 19.1536L79.433 31.0853V31.11C79.037 31.5309 78.3686 31.5309 77.9725 31.11C77.6507 30.7882 77.6012 30.3179 77.7992 29.9218C77.7992 29.9218 83.7155 18.8566 84.1859 17.9902C84.6562 17.1238 85.6711 17 86.0672 17ZM93.7163 38.8331C93.7163 50.9132 83.9383 60.6912 71.8582 60.6912C59.8028 60.6912 50 50.9132 50 38.8331C50 27.8174 58.1442 18.7077 68.7391 17.1977C68.7855 17.1861 68.832 17.1799 68.8758 17.1741C68.9255 17.1675 68.972 17.1613 69.0114 17.1482C69.358 17.1729 69.655 17.3957 69.754 17.7423L69.7788 18.0641L70.6204 27.8916L70.6452 28.1639C70.6204 28.5105 70.3729 28.7828 70.0511 28.8818C70.0016 28.8818 69.9521 28.8818 69.9026 28.9065C65.2487 29.8225 61.7088 33.9317 61.7088 38.8578C61.7088 44.4523 66.2389 49.0071 71.8582 49.0071C77.4527 49.0071 81.9827 44.4771 82.0075 38.9073V38.8826V38.8331V38.7836C82.0322 38.437 82.255 38.1647 82.5768 38.0657L82.7254 38.0409L92.5529 36.0111L92.7757 35.9616H92.8252C93.1965 35.9616 93.5183 36.2091 93.6173 36.5804C93.6173 36.6149 93.6226 36.6494 93.6284 36.6863C93.635 36.7289 93.6421 36.7749 93.6421 36.828C93.6916 37.4468 93.7163 38.14 93.7163 38.8331ZM78.7894 38.8333C78.7894 42.6455 75.6951 45.7646 71.8829 45.7646C68.0707 45.7646 64.9517 42.6703 64.9517 38.8333C64.9517 35.0212 68.046 31.9021 71.8829 31.9021C75.6951 31.9269 78.7894 35.0212 78.7894 38.8333Z" fill="url(#paint0_linear)"/>
<path d="M90.127 32.4962L82.1066 35.0954C81.6362 35.244 81.1411 34.9964 80.9926 34.5261C80.8688 34.1548 81.0174 33.7587 81.2897 33.5359L87.9981 28.4365C89.013 27.6691 90.4736 27.8671 91.2409 28.8821C92.0083 29.897 91.8103 31.3575 90.7954 32.1249C90.5973 32.2982 90.3498 32.422 90.127 32.4962Z" fill="#F16037"/>
<path d="M68.3592 50.401C68.4675 50.1575 68.7135 50 68.9854 50H93.3172C93.6943 50 94 50.2985 94 50.6667V60.3333C94 60.7015 93.6943 61 93.3172 61H64.6835C64.1919 61 63.8614 60.5079 64.0573 60.0677L68.3592 50.401Z" fill="url(#paint1_linear)"/>
<path d="M72.3967 52.6113C73.0096 52.4925 73.6144 52.4331 74.2111 52.4331C75.1129 52.4331 75.7852 52.6086 76.228 52.9596C76.6735 53.3106 76.8963 53.8574 76.8963 54.5999C76.8963 55.3127 76.6776 55.8513 76.2402 56.2158C75.8028 56.5803 75.1548 56.7626 74.2962 56.7626C74.1747 56.7626 73.9816 56.7572 73.717 56.7464V58.5H72.3967V52.6113ZM74.3083 55.7744C74.7619 55.7744 75.0927 55.6826 75.3006 55.499C75.5085 55.3154 75.6124 55.0184 75.6124 54.608C75.6124 54.1949 75.5085 53.8938 75.3006 53.7048C75.0927 53.5158 74.77 53.4213 74.3326 53.4213C74.1112 53.4213 73.906 53.4375 73.717 53.4699V55.7379C73.9141 55.7622 74.1112 55.7744 74.3083 55.7744Z" fill="white"/>
<path d="M81.5677 58.5L80.0368 56.3009H79.9639C79.7749 56.3009 79.5656 56.2941 79.3361 56.2806V58.5H78.0361V52.6397C78.3223 52.5776 78.6274 52.5276 78.9514 52.4898C79.2754 52.452 79.5953 52.4331 79.9112 52.4331C80.7779 52.4331 81.4273 52.5911 81.8593 52.907C82.2913 53.2202 82.5073 53.7035 82.5073 54.3569C82.5073 54.7835 82.4033 55.1426 82.1954 55.4342C81.9902 55.7258 81.6932 55.9445 81.3044 56.0903L83.0054 58.5H81.5677ZM79.3361 55.2843C79.5629 55.3086 79.7803 55.3208 79.9882 55.3208C80.4256 55.3208 80.7482 55.2452 80.9561 55.094C81.164 54.9428 81.268 54.6984 81.268 54.3609C81.268 54.0288 81.1681 53.7872 80.9683 53.636C80.7712 53.4821 80.4634 53.4051 80.0449 53.4051C79.8073 53.4051 79.571 53.4254 79.3361 53.4659V55.2843Z" fill="white"/>
<path d="M86.2643 58.577C85.6838 58.577 85.1816 58.4649 84.7577 58.2408C84.3365 58.014 84.0098 57.6711 83.7776 57.2121C83.5481 56.7531 83.4334 56.1834 83.4334 55.503C83.4334 54.8226 83.5481 54.2529 83.7776 53.7939C84.0098 53.3349 84.3365 52.9934 84.7577 52.7693C85.1816 52.5425 85.6838 52.4291 86.2643 52.4291C86.8448 52.4291 87.3457 52.5425 87.7669 52.7693C88.1908 52.9961 88.5175 53.339 88.747 53.798C88.9765 54.257 89.0912 54.8253 89.0912 55.503C89.0912 56.1807 88.9751 56.7491 88.7429 57.2081C88.5134 57.6671 88.1867 58.01 87.7628 58.2368C87.3416 58.4636 86.8421 58.577 86.2643 58.577ZM86.2643 57.5118C86.7422 57.5118 87.1067 57.3539 87.3578 57.038C87.6089 56.7221 87.7345 56.2199 87.7345 55.5314C87.7345 54.8186 87.6076 54.3015 87.3538 53.9802C87.1027 53.6562 86.7395 53.4942 86.2643 53.4942C85.7864 53.4942 85.4206 53.6522 85.1668 53.9681C84.9157 54.284 84.7901 54.7862 84.7901 55.4747C84.7901 56.1902 84.9157 56.7086 85.1668 57.0299C85.4179 57.3512 85.7837 57.5118 86.2643 57.5118Z" fill="white"/>
<path fill-rule="evenodd" clip-rule="evenodd" d="M68.9855 48H93.3173C94.7536 48 96.0001 49.1491 96.0001 50.6667V60.3333C96.0001 61.8509 94.7536 63 93.3173 63H64.6836C62.8201 63 61.4151 61.0861 62.2301 59.2545L66.532 49.5878C66.9699 48.6038 67.9443 48 68.9855 48ZM68.9855 50C68.7136 50 68.4676 50.1575 68.3592 50.401L64.0574 60.0677C63.8614 60.5079 64.1919 61 64.6836 61H93.3173C93.6944 61 94.0001 60.7015 94.0001 60.3333V50.6667C94.0001 50.2985 93.6944 50 93.3173 50H68.9855Z" fill="white"/>
<path d="M125.443 45.6621H130.221C129.651 47.5262 128.537 49.0671 126.879 50.2353C125.22 51.4035 123.413 52 121.432 52C120.244 52 119.08 51.7763 117.917 51.304C116.753 50.8318 115.738 50.1607 114.822 49.3157C113.931 48.4458 113.213 47.4267 112.743 46.2337C112.248 45.0407 112 43.7731 112 42.4558C112 39.871 112.916 37.7086 114.748 35.8942C116.58 34.1047 118.808 33.21 121.407 33.21C123.388 33.21 125.195 33.8065 126.879 34.9995C128.562 36.1925 129.651 37.7335 130.196 39.6224H125.418C124.948 38.8519 124.378 38.2803 123.735 37.9075C123.091 37.5346 122.274 37.3607 121.358 37.3607C119.823 37.3607 118.61 37.8578 117.669 38.8271C116.728 39.7964 116.283 41.0391 116.283 42.5304C116.283 44.0714 116.778 45.3638 117.768 46.358C118.758 47.377 120.021 47.8741 121.581 47.8741C122.373 47.8741 123.091 47.6753 123.784 47.2776C124.452 46.8551 125.022 46.3331 125.443 45.6621Z" fill="#6E7171"/>
<path d="M141.287 33.21C143.861 33.21 146.04 34.1284 147.822 35.9652C149.605 37.802 150.521 40.0359 150.521 42.6422C150.521 45.2236 149.605 47.4328 147.748 49.2696C145.891 51.1064 143.688 52 141.089 52C138.539 52 136.335 51.0816 134.503 49.2199C132.647 47.3831 131.731 45.174 131.731 42.6174C131.731 39.9863 132.647 37.7523 134.503 35.9155C136.36 34.1284 138.613 33.21 141.287 33.21ZM141.113 37.3552C140.445 37.3552 139.777 37.5041 139.158 37.7771C138.539 38.0502 137.969 38.4473 137.499 38.9438C136.533 39.9118 136.038 41.1529 136.038 42.6422C136.038 44.0819 136.533 45.3229 137.499 46.3406C138.464 47.3583 139.677 47.8547 141.138 47.8547C142.624 47.8547 143.861 47.3583 144.827 46.3654C145.792 45.3726 146.287 44.1315 146.287 42.6422C146.287 41.1777 145.792 39.9366 144.802 38.8941C143.787 37.8516 142.574 37.3552 141.113 37.3552Z" fill="#6E7171"/>
<path d="M135.271 31.713L139.356 27.3232H142.723L146.857 31.713H142.723L141.014 29.6793L139.034 31.713H135.271Z" fill="#6E7171"/>
<path d="M165.523 45.6621H170.301C169.732 47.5262 168.618 49.0671 166.959 50.2353C165.3 51.4035 163.493 52 161.512 52C160.324 52 159.161 51.7763 157.997 51.304C156.834 50.8318 155.819 50.1607 154.903 49.3157C154.011 48.4458 153.293 47.4267 152.823 46.2337C152.328 45.0407 152.08 43.7731 152.08 42.4558C152.08 39.871 152.996 37.7086 154.828 35.8942C156.66 34.1047 158.888 33.21 161.488 33.21C163.468 33.21 165.275 33.8065 166.959 34.9995C168.642 36.1925 169.732 37.7335 170.276 39.6224H165.498C165.028 38.8519 164.458 38.2803 163.815 37.9075C163.146 37.5346 162.354 37.3607 161.438 37.3607C159.903 37.3607 158.69 37.8578 157.75 38.8271C156.809 39.7964 156.338 41.0391 156.338 42.5304C156.338 44.0714 156.834 45.3638 157.824 46.358C158.814 47.377 160.077 47.8741 161.636 47.8741C162.428 47.8741 163.171 47.6753 163.84 47.2776C164.558 46.8551 165.102 46.3331 165.523 45.6621Z" fill="#6E7171"/>
<path d="M194.142 45.6621H198.92C198.35 47.5262 197.236 49.0671 195.578 50.2353C193.919 51.4035 192.112 52 190.131 52C188.943 52 187.779 51.7763 186.616 51.304C185.452 50.8318 184.437 50.1607 183.521 49.3157C182.605 48.4458 181.912 47.4267 181.442 46.2337C180.947 45.0407 180.699 43.7731 180.699 42.4558C180.699 39.871 181.615 37.7086 183.447 35.8942C185.279 34.1047 187.507 33.21 190.106 33.21C192.087 33.21 193.894 33.8065 195.578 34.9995C197.261 36.1925 198.35 37.7335 198.895 39.6224H194.117C193.647 38.8519 193.102 38.2803 192.433 37.9075C191.765 37.5346 190.973 37.3607 190.057 37.3607C188.522 37.3607 187.309 37.8578 186.368 38.8271C185.427 39.7964 184.957 41.0391 184.957 42.5304C184.957 44.0714 185.452 45.3638 186.442 46.358C187.433 47.377 188.695 47.8741 190.255 47.8741C191.047 47.8741 191.79 47.6753 192.458 47.2776C193.151 46.8551 193.721 46.3331 194.142 45.6621Z" fill="#6E7171"/>
<path d="M210.06 33.21C212.635 33.21 214.813 34.1284 216.596 35.9652C218.378 37.802 219.294 40.0359 219.294 42.6422C219.294 45.2236 218.378 47.4328 216.521 49.2696C214.689 51.1064 212.461 52 209.862 52C207.312 52 205.109 51.0816 203.277 49.2199C201.42 47.3831 200.504 45.174 200.504 42.6174C200.504 39.9863 201.42 37.7523 203.277 35.9155C205.133 34.1284 207.386 33.21 210.06 33.21ZM209.862 37.3552C209.193 37.3552 208.525 37.5041 207.906 37.7771C207.287 38.0502 206.718 38.4473 206.247 38.9438C205.282 39.9118 204.787 41.1529 204.787 42.6422C204.787 44.0819 205.282 45.3229 206.247 46.3406C207.213 47.3583 208.426 47.8547 209.887 47.8547C211.372 47.8547 212.61 47.3583 213.575 46.3654C214.566 45.3726 215.036 44.1315 215.036 42.6422C215.036 41.1777 214.541 39.9366 213.551 38.8941C212.56 37.8516 211.347 37.3552 209.862 37.3552Z" fill="#6E7171"/>
<path d="M204.044 31.713L208.129 27.3232H211.496L215.63 31.713H211.496L209.763 29.6793L207.807 31.713H204.044Z" fill="#6E7171"/>
<path d="M234.222 45.6621H239C238.431 47.5262 237.317 49.0671 235.658 50.2353C233.999 51.4035 232.192 52 230.212 52C229.023 52 227.86 51.7763 226.696 51.304C225.533 50.8318 224.518 50.1607 223.602 49.3157C222.686 48.4458 222.017 47.4267 221.522 46.2337C221.027 45.0407 220.804 43.7731 220.804 42.4558C220.804 39.871 221.72 37.7086 223.552 35.8942C225.384 34.1047 227.612 33.21 230.212 33.21C232.192 33.21 233.999 33.8065 235.683 34.9995C237.366 36.1925 238.455 37.7335 239 39.6224H234.222C233.752 38.8519 233.182 38.2803 232.539 37.9075C231.87 37.5346 231.078 37.3607 230.162 37.3607C228.627 37.3607 227.414 37.8578 226.473 38.8271C225.533 39.7964 225.062 41.0391 225.062 42.5304C225.062 44.0714 225.557 45.3638 226.548 46.358C227.538 47.377 228.801 47.8741 230.36 47.8741C231.152 47.8741 231.895 47.6753 232.563 47.2776C233.257 46.8551 233.801 46.3331 234.222 45.6621Z" fill="#6E7171"/>
<path d="M145.495 22.7104L146.981 18.8167C147.278 18.0479 147.525 17.5271 147.748 17.2295C147.971 16.9319 148.243 16.7335 148.615 16.6343C149.258 16.4606 149.679 16.7087 149.828 17.3287C149.951 17.8495 149.63 18.6183 148.837 19.6103L145.966 23.2808C145.768 23.5288 145.619 23.6528 145.545 23.6776C145.396 23.7024 145.322 23.6776 145.272 23.5288C145.223 23.4544 145.297 23.1816 145.495 22.7104Z" fill="#4FBA69"/>
<path d="M147.327 24.5208L150.001 21.3215C150.521 20.7015 150.942 20.2799 151.239 20.0567C151.536 19.8335 151.882 19.7343 152.254 19.7839C152.922 19.8335 153.219 20.1807 153.17 20.8503C153.12 21.3959 152.576 21.9911 151.486 22.6856L147.575 25.2152C147.302 25.3888 147.129 25.4632 147.03 25.4632C146.882 25.4632 146.807 25.3888 146.832 25.24C146.832 25.1408 147.005 24.9176 147.327 24.5208Z" fill="#4FBA69"/>
<path d="M148.986 26.4058L152.65 24.4465C153.368 24.0745 153.912 23.8265 154.259 23.7521C154.63 23.6529 154.977 23.7025 155.299 23.8761C155.893 24.1737 156.041 24.6201 155.744 25.2153C155.497 25.6866 154.754 26.0586 153.492 26.2818L148.912 27.1498C148.615 27.1994 148.417 27.2242 148.318 27.1746C148.194 27.1002 148.144 27.0258 148.218 26.9018C148.293 26.8026 148.54 26.6538 148.986 26.4058Z" fill="#4FBA69"/>
<path d="M214.194 22.7599L215.679 18.8414C215.977 18.0726 216.224 17.5518 216.447 17.2294C216.67 16.9318 216.942 16.7334 217.313 16.6342C217.957 16.4605 218.378 16.7086 218.551 17.3534C218.675 17.8742 218.353 18.643 217.561 19.6598L214.689 23.3551C214.491 23.6031 214.343 23.7271 214.268 23.752C214.12 23.7768 214.046 23.752 213.996 23.6031C213.922 23.5039 213.996 23.2311 214.194 22.7599Z" fill="#F16037"/>
<path d="M216.026 24.5705L218.724 21.3464C219.244 20.7264 219.665 20.3048 219.962 20.0816C220.259 19.8584 220.606 19.7592 220.977 19.784C221.646 19.8336 221.968 20.2056 221.893 20.8504C221.844 21.396 221.299 22.0161 220.185 22.7105L216.249 25.2649C215.977 25.4385 215.803 25.513 215.704 25.513C215.556 25.513 215.481 25.4385 215.506 25.2897C215.531 25.2153 215.704 24.9673 216.026 24.5705Z" fill="#F16037"/>
<path d="M217.709 26.4802L221.398 24.521C222.116 24.149 222.661 23.901 223.032 23.8266C223.403 23.7274 223.75 23.777 224.072 23.9506C224.666 24.2482 224.815 24.6946 224.542 25.2898C224.295 25.761 223.552 26.133 222.265 26.3562L217.66 27.2243C217.338 27.2739 217.14 27.2987 217.066 27.2491C216.942 27.1747 216.893 27.0755 216.967 26.9762C217.016 26.877 217.264 26.7034 217.709 26.4802Z" fill="#F16037"/>
<defs>
<linearGradient id="paint0_linear" x1="50" y1="43.7001" x2="93.7163" y2="43.7001" gradientUnits="userSpaceOnUse">
<stop stop-color="#97C93D"/>
<stop offset="1" stop-color="#4FBA69"/>
</linearGradient>
<linearGradient id="paint1_linear" x1="94" y1="50" x2="42.6897" y2="65.2922" gradientUnits="userSpaceOnUse">
<stop stop-color="#D8242B"/>
<stop offset="1" stop-color="#F17D21"/>
</linearGradient>
</defs>
</svg>
