<svg width="80" height="27" viewBox="0 0 80 27" fill="none" xmlns="http://www.w3.org/2000/svg">
<path d="M0.139526 21.4118L11.0002 20.4118L10.8609 27H11.0002L0.139526 21.4118Z" fill="url(#paint0_linear)"/>
<path d="M2.78637 1.99999L79.4115 0L76.6251 19.4117L0 21.4117L2.78637 1.99999Z" fill="url(#paint1_linear)"/>
<path d="M11.9639 15.0943C10.8467 15.1251 9.99109 14.8795 9.39707 14.3574C8.80296 13.8324 8.49015 12.9981 8.45862 11.8544C8.42798 10.7431 8.70329 9.89692 9.28456 9.31598C9.86582 8.73504 10.7209 8.429 11.8499 8.39787C12.3527 8.38401 12.8201 8.42262 13.2522 8.51368L13.2848 9.69558C12.8557 9.60738 12.4251 9.56923 11.9929 9.58115C11.5166 9.59428 11.1276 9.67856 10.8259 9.83399C10.5242 9.98942 10.3013 10.228 10.1571 10.5497C10.0159 10.8685 9.95227 11.2836 9.96637 11.7952C9.9808 12.3185 10.0674 12.7369 10.2261 13.0503C10.3848 13.3637 10.6146 13.5883 10.9155 13.7242C11.2163 13.8571 11.599 13.9172 12.0635 13.9044C12.481 13.8928 12.9245 13.8115 13.3941 13.6602L13.4268 14.8465C13.2169 14.9171 12.9845 14.9735 12.7297 15.0158C12.4779 15.061 12.2227 15.0872 11.9639 15.0943Z" fill="white"/>
<path d="M16.9477 14.9569C16.3155 14.9743 15.7653 14.8674 15.297 14.6361C14.8316 14.4018 14.4655 14.0382 14.1989 13.5454C13.9352 13.0525 13.7932 12.4355 13.7727 11.6947C13.7523 10.9538 13.8602 10.33 14.0963 9.82327C14.3353 9.31649 14.6808 8.93476 15.1328 8.67809C15.5875 8.4184 16.131 8.27985 16.7631 8.26242C17.3952 8.24499 17.944 8.35344 18.4094 8.58776C18.8778 8.82199 19.2439 9.18557 19.5076 9.67849C19.7712 10.1714 19.9133 10.7868 19.9336 11.5248C19.9539 12.2627 19.8446 12.8851 19.6055 13.3919C19.3694 13.8986 19.024 14.2818 18.5692 14.5415C18.1173 14.8011 17.5768 14.9396 16.9477 14.9569ZM16.9157 13.7971C17.4361 13.7827 17.8282 13.5998 18.0922 13.2483C18.3561 12.8967 18.4778 12.3461 18.4571 11.5964C18.4357 10.8202 18.282 10.261 17.996 9.91877C17.7128 9.5735 17.3125 9.408 16.7951 9.42227C16.2747 9.43661 15.881 9.61959 15.6142 9.9712C15.3502 10.3227 15.2286 10.8733 15.2493 11.6231C15.2707 12.4022 15.423 12.9629 15.7061 13.3052C15.9892 13.6475 16.3924 13.8115 16.9157 13.7971Z" fill="white"/>
<path d="M26.139 8.08778L27.8898 8.03951L28.0698 14.5664L26.7247 14.6035L26.5974 9.98615L25.0978 13.7039L23.9115 13.7366L22.2126 10.2262L22.3367 14.7245L20.9916 14.7616L20.8116 8.23465L22.5624 8.18639L24.4883 12.2466L26.139 8.08778Z" fill="white"/>
<path d="M29.2601 14.5336L29.0801 8.00669L30.5178 7.96706L30.6977 14.494L29.2601 14.5336Z" fill="white"/>
<path d="M35.9722 7.81668L37.3261 7.77935L37.506 14.3063L36.0595 14.3461L33.1033 10.0539L33.2238 14.4243L31.8699 14.4616L31.69 7.93474L33.1365 7.89486L36.0927 12.1871L35.9722 7.81668Z" fill="white"/>
<path d="M43.7377 10.9568L43.8233 14.0615C43.238 14.1747 42.6969 14.2382 42.2 14.2519C40.9505 14.2863 40.0081 14.0401 39.3727 13.5133C38.7403 12.9865 38.4071 12.16 38.3732 11.0341C38.3424 9.91979 38.6353 9.07169 39.2519 8.48978C39.8684 7.90786 40.7809 7.60024 41.9893 7.56693C42.5038 7.55275 42.9948 7.59364 43.4623 7.68962L43.4949 8.87151C43.0333 8.77832 42.585 8.73772 42.1499 8.74971C41.609 8.76757 41.17 8.8547 40.833 9.0111C40.496 9.16751 40.2482 9.40972 40.0895 9.73775C39.9337 10.0628 39.863 10.4869 39.8775 11.0102C39.8977 11.7453 40.086 12.2785 40.4424 12.61C40.7986 12.9385 41.3369 13.0929 42.0572 13.073C42.1483 13.0705 42.282 13.0639 42.4583 13.0531L42.4015 10.9936L43.7377 10.9568Z" fill="white"/>
<path d="M48.8317 14.0779C48.5141 14.0866 48.1959 14.0704 47.877 14.0292C47.5611 13.9908 47.2682 13.9312 46.9982 13.8504L46.9661 12.6861C47.242 12.7668 47.5438 12.8291 47.8716 12.873C48.2023 12.9139 48.5102 12.9304 48.7954 12.9225C49.2158 12.911 49.5184 12.8394 49.703 12.7077C49.8876 12.5732 49.9765 12.381 49.9696 12.1311C49.9658 11.9929 49.9332 11.879 49.8719 11.7895C49.8135 11.697 49.7157 11.6188 49.5786 11.5549C49.4414 11.488 49.2499 11.4256 49.0041 11.3677L48.511 11.2533C47.9249 11.1253 47.4836 10.9124 47.1871 10.6145C46.8904 10.3138 46.7353 9.91643 46.7217 9.4225C46.7043 8.79039 46.9201 8.29602 47.3693 7.93939C47.8184 7.57982 48.4913 7.38767 49.388 7.36295C49.6732 7.35508 49.9485 7.36515 50.2141 7.39313C50.4826 7.4181 50.7249 7.45702 50.9411 7.5099L50.9734 8.67857C50.7628 8.61965 50.5277 8.57611 50.268 8.54796C50.0113 8.51973 49.755 8.50915 49.4992 8.5162C49.0112 8.52965 48.6631 8.60545 48.4551 8.74359C48.247 8.87879 48.1462 9.06693 48.1529 9.30801C48.1565 9.44031 48.1846 9.54988 48.237 9.6367C48.2894 9.72352 48.3753 9.79766 48.4947 9.85909C48.617 9.92045 48.7863 9.97757 49.0025 10.0305L49.4999 10.1403C50.1393 10.2816 50.6117 10.501 50.9171 10.7986C51.2254 11.0961 51.3864 11.4947 51.4002 11.9945C51.4116 12.4091 51.3172 12.7706 51.1168 13.0792C50.9164 13.3878 50.6214 13.6284 50.2319 13.8009C49.8453 13.9705 49.3785 14.0628 48.8317 14.0779Z" fill="white"/>
<path d="M55.1482 13.9037C54.5161 13.9211 53.9659 13.8142 53.4975 13.5829C53.0321 13.3486 52.6661 12.985 52.3994 12.4922C52.1357 11.9993 51.9937 11.3824 51.9733 10.6415C51.9528 9.90057 52.0607 9.27677 52.2968 8.77007C52.5359 8.2633 52.8814 7.88157 53.3333 7.6249C53.7881 7.36521 54.3315 7.22665 54.9636 7.20923C55.5957 7.1918 56.1445 7.30024 56.61 7.53456C57.0784 7.7688 57.4444 8.13238 57.7081 8.6253C57.9718 9.11822 58.1138 9.73365 58.1341 10.4716C58.1545 11.2096 58.0451 11.8319 57.8061 12.3387C57.5699 12.8454 57.2245 13.2286 56.7697 13.4883C56.3179 13.7479 55.7774 13.8864 55.1482 13.9037ZM55.1162 12.7439C55.6366 12.7295 56.0288 12.5466 56.2927 12.1951C56.5566 11.8435 56.6783 11.2929 56.6576 10.5432C56.6362 9.76703 56.4825 9.20782 56.1965 8.86558C55.9133 8.52031 55.513 8.35481 54.9956 8.36908C54.4752 8.38342 54.0816 8.5664 53.8147 8.918C53.5508 9.26953 53.4291 9.82015 53.4498 10.5699C53.4713 11.349 53.6235 11.9097 53.9066 12.252C54.1897 12.5943 54.5929 12.7583 55.1162 12.7439Z" fill="white"/>
<path d="M62.0389 13.7137C61.4068 13.7312 60.8566 13.6242 60.3883 13.3929C59.9228 13.1586 59.5568 12.795 59.2902 12.3022C59.0265 11.8093 58.8844 11.1924 58.864 10.4515C58.8436 9.71059 58.9514 9.08679 59.1875 8.5801C59.4266 8.07332 59.7721 7.69159 60.224 7.43492C60.6788 7.17523 61.2222 7.03667 61.8544 7.01925C62.4865 7.00182 63.0353 7.11027 63.5007 7.34459C63.9691 7.57882 64.3351 7.9424 64.5988 8.43532C64.8625 8.92824 65.0045 9.54367 65.0249 10.2816C65.0452 11.0196 64.9359 11.6419 64.6968 12.1487C64.4607 12.6554 64.1152 13.0386 63.6604 13.2983C63.2086 13.5579 62.6681 13.6964 62.0389 13.7137ZM62.0069 12.5539C62.5273 12.5395 62.9195 12.3566 63.1834 12.0051C63.4474 11.6536 63.569 11.1029 63.5484 10.3532C63.527 9.57706 63.3732 9.01785 63.0872 8.6756C62.8041 8.33033 62.4038 8.16483 61.8863 8.1791C61.3659 8.19344 60.9723 8.37642 60.7054 8.72803C60.4415 9.07955 60.3199 9.63017 60.3405 10.3799C60.362 11.159 60.5143 11.7197 60.7974 12.062C61.0804 12.4044 61.4836 12.5683 62.0069 12.5539Z" fill="white"/>
<path d="M70.1675 6.87391L71.5213 6.83658L71.7013 13.3635L70.2548 13.4034L67.2986 9.11117L67.4191 13.4816L66.0652 13.5189L65.8853 6.99197L67.3318 6.95209L70.2879 11.2443L70.1675 6.87391Z" fill="white"/>
<defs>
<linearGradient id="paint0_linear" x1="79.4117" y1="12.5883" x2="-6.16325" y2="92.0696" gradientUnits="userSpaceOnUse">
<stop stop-color="#7924E7"/>
<stop offset="1" stop-color="#0058D3"/>
</linearGradient>
<linearGradient id="paint1_linear" x1="79.4116" y1="-6.82339" x2="-6.16334" y2="72.658" gradientUnits="userSpaceOnUse">
<stop stop-color="#B57AFF"/>
<stop offset="1" stop-color="#006AFF"/>
</linearGradient>
</defs>
</svg>
