<svg width="280" height="231" fill="none" xmlns="http://www.w3.org/2000/svg"><path fill-rule="evenodd" clip-rule="evenodd" d="M230.192-25h33.02c3.634 0 7.11 3.634 6.952 6.952 0 3.915-1.867 5.534-3.136 6.635l-.182.158-78.995 76.152v.158a6.4 6.4 0 01-9.322 0c-2.053-2.054-2.369-5.056-1.105-7.584 0 0 37.759-70.622 40.761-76.151 3.002-5.53 9.48-6.32 12.007-6.32zm48.819 139.346c0 77.099-62.406 139.505-139.505 139.505C62.564 253.851 0 191.445 0 114.346 0 44.04 51.979-14.101 119.599-23.738c.296-.074.593-.114.873-.15.317-.043.613-.082.865-.166 2.212.158 4.108 1.58 4.74 3.792l.158 2.053 5.371 62.723.158 1.738c-.158 2.212-1.738 3.95-3.792 4.581-.316 0-.632 0-.948.158-29.702 5.846-52.294 32.073-52.294 63.513 0 35.706 28.912 64.776 64.776 64.776 35.706 0 64.618-28.913 64.776-64.46v-.79c.158-2.212 1.58-3.95 3.634-4.582l.948-.158 62.722-12.955 1.422-.316h.316c2.37 0 4.424 1.58 5.056 3.95 0 .219.034.439.07.675.042.272.088.566.088.904.315 3.95.473 8.374.473 12.798zm-95.268.001c0 24.331-19.749 44.238-44.079 44.238-24.331 0-44.238-19.749-44.238-44.238 0-24.33 19.749-44.237 44.238-44.237 24.33.158 44.079 19.907 44.079 44.237zM180.425-1.775L160.202 48.15c-1.105 2.843-4.423 4.265-7.425 3.16-2.37-.949-3.634-3.16-3.476-5.53l2.686-53.717c.474-8.215 7.426-14.377 15.483-14.061 8.216.474 14.377 7.425 14.061 15.483-.158 1.58-.632 3.16-1.106 4.74zm24.489 92.266l51.189-16.59c1.422-.473 3.002-1.263 4.265-2.369 6.478-4.898 7.742-14.22 2.844-20.697-4.897-6.477-14.219-7.741-20.696-2.844L199.7 80.537c-1.738 1.422-2.686 3.95-1.896 6.32.948 3.002 4.108 4.582 7.11 3.634z" fill="url(#paint0_linear)"/><defs><linearGradient id="paint0_linear" x1="211.989" y1="-11.598" x2="85.283" y2="268.617" gradientUnits="userSpaceOnUse"><stop stop-color="#9CD350"/><stop offset="1" stop-color="#9CD350" stop-opacity="0"/></linearGradient></defs></svg>