<svg width="1920" height="800" viewBox="0 0 1920 800" fill="none" xmlns="http://www.w3.org/2000/svg">
<path fill-rule="evenodd" clip-rule="evenodd" d="M797.112 745.707C324.397 822.45 -141.488 734.452 -141.488 734.452L-145.196 469.298L-480.283 438.569L-443.908 39.3611C-443.908 39.3611 -402.12 -72.8617 40.7695 83.8709C71.559 94.7669 100.134 104.976 126.826 114.513C484.095 242.161 504.252 249.363 985.92 170.339C1503.58 85.4104 1920.65 256.204 1920.65 256.204L1914.16 327.405L2226.79 331.106L2232.83 762.558C2232.83 762.558 2132.2 867.49 1746.15 756.735C1377.61 651.003 1278.63 667.154 859.149 735.602C839.215 738.855 818.557 742.226 797.112 745.707Z" fill="#F7FBFF"/>
</svg>
