<svg width="1366" height="295" fill="none" xmlns="http://www.w3.org/2000/svg"><path fill-rule="evenodd" clip-rule="evenodd" d="M826 53.299c206 77.298 540-.397 540-.397V295H0V53.696c.123.086 89.132 62.261 280-.199C471-9.006 620-24 826 53.3z" fill="#fff"/><mask id="a" maskUnits="userSpaceOnUse" x="0" y="0" width="1366" height="295"><path fill-rule="evenodd" clip-rule="evenodd" d="M826 53.299c206 77.298 540-.397 540-.397V295H0V53.696c.123.086 89.132 62.261 280-.199C471-9.006 620-24 826 53.3z" fill="#fff"/></mask><g mask="url(#a)"><path opacity=".25" d="M0 81.902l-.149.477-.351-.11V-388.5H0l1366 .794h.5V82.951l-.21.15-.29-.405c.29.404.29.405.29.406v.004l-.02.014-.08.056c-.07.05-.18.123-.31.218-.28.191-.69.472-1.23.834-1.08.723-2.7 1.769-4.84 3.062-4.26 2.587-10.61 6.166-18.9 10.141-16.58 7.95-40.98 17.484-72.25 23.831-62.53 12.696-152.52 12.637-262.37-38.311-219.367-101.74-415.198-86.529-571.048-.215-78.147 43.28-187.036 43.16-276.303 32.259-44.648-5.452-84.416-13.605-113.023-20.395-14.304-3.395-25.818-6.45-33.757-8.656a596.062 596.062 0 01-9.13-2.61 339.489 339.489 0 01-2.973-.892l-.153-.047-.038-.012-.01-.003c-.002 0-.004 0 .145-.478z" stroke="#4FBA69"/><path opacity=".05" d="M0 77.902s297 86.793 453 .397c156-86.397 352-101.604 571.5.198 219.5 101.802 341.5.199 341.5.199v-446.902L0-369V77.902z" fill="url(#paint0_linear)"/></g><defs><linearGradient id="paint0_linear" x1="0" y1="-177.357" x2="1366" y2="-177.357" gradientUnits="userSpaceOnUse"><stop stop-color="#97C93D"/><stop offset="1" stop-color="#4FBA69"/></linearGradient></defs></svg>